<?xml version="1.0" encoding="utf-8"?>
<!-- Generator: Adobe Illustrator 24.2.1, SVG Export Plug-In . SVG Version: 6.00 Build 0)  -->
<svg version="1.1" id="Capa_1" xmlns="http://www.w3.org/2000/svg" xmlns:xlink="http://www.w3.org/1999/xlink" x="0px" y="0px"
	 viewBox="0 0 408 370" enable-background="new 0 0 408 370" xml:space="preserve">
<path fill="#3A80A6" d="M243.823,258.597c-2.573-0.21-2.703,2.171-3.527,3.575c-11.015,18.766-21.935,37.588-32.888,56.391
	c-0.82,1.407-1.711,2.773-3.072,4.97c-12.406-21.577-24.454-42.531-36.5-63.484c0.063-7.153-0.027-14.313,0.239-21.459
	c0.167-4.469,3.642-8.062,7.074-7.506c4.225,0.684,4.798,4.034,4.805,7.571c0.011,5.991,0.117,11.984-0.038,17.97
	c-0.069,2.674,0.948,3.473,3.489,3.39c2.237-0.073,3.816-0.184,3.75-3.137c-0.169-7.651,0.075-15.313-0.183-22.959
	c-0.174-5.15-3.316-8.235-8.428-8.884c-3.566-0.453-6.97,0.174-9.969,2.266c-1.223,0.853-1.985,1.86-3.712,0.319
	c-3.864-3.447-8.471-3.303-13.126-1.716c-1.509,0.514-2.977,1.802-4.504,0.061c-3.943-9.16-9.484-17.445-14.432-26.042
	c-23.041-40.03-46.256-79.96-69.421-119.919c-9.584-16.533-19.198-33.049-28.792-49.577c-0.481-0.828-0.89-1.697-1.672-3.196
	c23.757,0,46.948,0,70.139,0c4.407,7.797,8.738,15.637,13.232,23.383c17.722,30.545,35.515,61.05,53.244,91.592
	c11.647,20.066,23.228,40.17,34.969,60.484c11.74-20.314,23.326-40.416,34.967-60.485c11.73-20.221,23.558-40.384,35.264-60.619
	c10.462-18.085,20.815-36.233,31.217-54.354c23.121,0,46.243,0,70.157,0c-2.586,4.592-4.933,8.864-7.375,13.08
	c-34.944,60.342-69.867,120.696-104.898,180.987c-4.487,7.722-8.472,15.758-13.792,22.982c-0.098-8.634-0.222-17.265-0.28-25.896
	c-0.016-2.414,0.276-4.598-3.419-4.512c-3.549,0.082-3.007,2.333-2.982,4.413C243.52,231.721,242.888,245.168,243.823,258.597z
	 M207.995,242.673c0,4.322,0.055,8.645-0.021,12.966c-0.043,2.479-0.171,4.383,3.453,4.444c3.874,0.066,3.748-1.988,3.796-4.678
	c0.108-6.13-0.669-12.307,0.783-18.379c0.945-3.951,3.675-6.142,7.528-5.875c3.96,0.274,5.472,3.253,5.453,7.065
	c-0.029,5.818,0.05,11.637-0.029,17.455c-0.034,2.515-0.107,4.44,3.493,4.398c3.279-0.038,3.839-1.39,3.769-4.199
	c-0.15-5.981-0.025-11.968-0.051-17.953c-0.046-10.678-7.05-15.609-17.088-11.987c-1.903,0.687-3.295,1.459-5.7,0.327
	c-2.617-1.232-5.922-0.924-5.465,3.955C208.302,234.332,207.995,238.517,207.995,242.673z M201.201,243.21
	c0-4.497-0.119-8.998,0.044-13.49c0.098-2.715-0.677-3.838-3.615-3.848c-2.966-0.01-3.631,1.161-3.594,3.853
	c0.124,8.826,0.125,17.656,0,26.482c-0.038,2.699,0.641,3.854,3.6,3.847c2.945-0.008,3.71-1.145,3.607-3.854
	C201.08,251.875,201.2,247.54,201.201,243.21z M201.144,217.548c0.524-2.879-0.847-3.693-3.56-3.641
	c-2.361,0.046-3.625,0.506-3.565,3.25c0.054,2.482,0.33,4.028,3.419,3.899C199.955,220.951,201.698,220.619,201.144,217.548z"/>
<path fill="#35495E" d="M305.948,27.229c-10.401,18.12-20.755,36.269-31.217,54.354c-11.706,20.235-23.534,40.398-35.264,60.619
	c-11.642,20.069-23.227,40.171-34.967,60.485c-11.741-20.313-23.322-40.418-34.969-60.484
	c-17.728-30.542-35.521-61.046-53.244-91.592c-4.494-7.746-8.825-15.586-13.232-23.383c19.643-0.047,39.287-0.03,58.93-0.213
	c2.726-0.025,3.711,1.362,4.842,3.323c11.78,20.44,23.616,40.847,35.445,61.259c0.573,0.988,1.224,1.93,2.286,3.594
	c4.166-7.12,8.074-13.747,11.933-20.403c8.583-14.805,17.163-29.612,25.682-44.453c1.128-1.966,2.121-3.345,4.844-3.32
	C266.66,27.199,286.304,27.182,305.948,27.229z"/>
<path fill="#1D1E1E" d="M147.232,225.963c1.527,1.741,2.995,0.454,4.504-0.061c4.655-1.586,9.261-1.73,13.126,1.716
	c1.727,1.54,2.489,0.534,3.712-0.319c2.999-2.092,6.404-2.718,9.969-2.266c5.112,0.649,8.254,3.734,8.428,8.884
	c0.258,7.646,0.014,15.308,0.183,22.959c0.065,2.953-1.513,3.064-3.75,3.137c-2.541,0.083-3.558-0.716-3.489-3.39
	c0.155-5.986,0.049-11.98,0.038-17.97c-0.006-3.537-0.579-6.886-4.805-7.571c-3.432-0.556-6.907,3.037-7.074,7.506
	c-0.267,7.146-0.177,14.305-0.239,21.459c-7.256-0.218-7.256-0.218-7.256-7.565c0-1.139,0.002-2.277,0.003-3.414
	c0.361-4.558,0.808-9.154-0.37-13.634c-1.263-4.801-3.927-5.558-8.279-2.609c-3.652,2.158-3.208,5.926-3.377,9.269
	c-0.251,4.958-0.237,9.946-0.004,14.905c0.144,3.069-1.518,3.076-3.683,2.978c-1.936-0.088-3.898,0.509-3.83-2.794
	c0.193-9.44,0.091-18.887,0.059-28.331C141.077,223.413,145.227,227.005,147.232,225.963z"/>
<path fill="#202020" d="M104.251,259.607c-8.684,0.817-9.036,0.926-11.367-6.565c-1.733-5.568-4.472-8.439-10.496-7.079
	c-0.316,0.071-0.663,0.009-0.996,0.009c-8.196,0-8.196,0-11.017,7.478c-2.631,6.972-2.631,6.972-10.325,6.153
	c0.627-3.971,2.516-7.482,3.921-11.145c4.037-10.527,8.184-21.012,12.167-31.559c0.805-2.132,1.801-3.384,4.246-2.941
	c2.213,0.401,4.803-1.044,6.179,2.42C92.251,230.686,98.202,244.89,104.251,259.607z M81.497,223.607
	c-1.058,2.827-1.739,4.674-2.438,6.515c-4.035,10.626-4.036,10.626,7.557,9.694c0.131-0.011,0.253-0.141,0.777-0.451
	C85.537,234.404,83.65,229.362,81.497,223.607z"/>
<path fill="#202020" d="M126.951,226.972c0-3.334,0.121-6.166-0.035-8.983c-0.146-2.644,0.032-4.259,3.553-4.16
	c3.084,0.087,3.883,0.853,3.84,3.921c-0.179,12.812-0.241,25.632,0.028,38.441c0.078,3.726-1.564,4.288-4.354,3.722
	c-2.608-0.529-4.897-0.341-7.439,0.654c-1.886,0.738-4.333,0.639-6.392,0.224c-5.742-1.158-9.508-4.91-10.903-10.46
	c-1.971-7.843-2.15-15.81,4.102-21.96c4.423-4.351,10.08-4.571,15.739-1.936C125.514,226.631,125.995,226.701,126.951,226.972z
	 M127.604,243.484c0.027-6.976-3.626-12.537-8.204-12.487c-4.751,0.052-8.342,6.154-7.751,13.172
	c0.526,6.25,4.247,11.023,8.37,10.736C124.22,254.612,127.58,249.552,127.604,243.484z"/>
<path fill="#1C1C1C" d="M314.859,236.191c0-6.327,0.132-12.658-0.062-18.979c-0.082-2.684,0.816-3.334,3.372-3.291
	c8.655,0.145,17.315,0.065,25.973,0.048c1.875-0.004,3.599-0.273,3.524,2.667c-0.081,3.183-2.223,2.296-3.837,2.314
	c-6.326,0.07-12.657,0.157-18.979-0.03c-2.829-0.084-4.028,0.341-4.013,3.68c0.047,10.365-0.131,10.366,10.252,10.366
	c3.996,0,7.992,0.028,11.988-0.013c1.627-0.016,2.817,0.021,2.847,2.289c0.03,2.279-0.811,2.8-2.899,2.763
	c-6.159-0.106-12.324,0.088-18.479-0.095c-2.7-0.08-3.648,0.533-3.69,3.482c-0.177,12.563-0.29,12.562,12.036,12.562
	c4.329,0,8.659,0.044,12.986-0.02c1.747-0.026,2.796,0.275,2.771,2.417c-0.023,1.911-0.596,2.646-2.56,2.633
	c-9.656-0.065-19.314-0.101-28.97,0.013c-2.809,0.033-2.245-1.76-2.25-3.326C314.846,249.178,314.859,242.685,314.859,236.191z"/>
<path fill="#242424" d="M289.253,238.684c0-5.324-0.208-10.659,0.077-15.967c0.172-3.203-0.938-4.056-3.93-3.774
	c-2.638,0.249-5.323-0.036-7.98,0.08c-1.998,0.087-3.055-0.337-3.005-2.69c0.045-2.138,1.045-2.402,2.791-2.394
	c10.148,0.047,20.297,0.072,30.445-0.019c1.994-0.018,2.552,0.65,2.557,2.565c0.005,1.938-0.599,2.809-2.573,2.512
	c-0.163-0.024-0.332-0.008-0.499-0.002c-3.802,0.125-9.173-1.225-11.021,0.739c-2.464,2.619-0.702,7.866-0.759,11.979
	c-0.11,7.984-0.068,15.971-0.008,23.957c0.015,2.024,0.018,3.44-2.79,3.4c-2.626-0.038-3.442-0.806-3.361-3.418
	C289.375,250,289.254,244.34,289.253,238.684z"/>
<path fill="#1F2224" d="M243.823,258.597c-0.935-13.429-0.303-26.876-0.463-40.314c-0.025-2.08-0.567-4.331,2.982-4.413
	c3.695-0.085,3.403,2.099,3.419,4.512c0.058,8.632,0.182,17.263,0.28,25.896c-1.078,9.665-1.078,9.665,8.391,9.665
	c3.48,0,6.961,0.064,10.439-0.024c1.939-0.049,3.067,0.264,3.002,2.664c-0.058,2.123-1.03,2.43-2.756,2.398
	C260.686,258.825,252.254,258.72,243.823,258.597z"/>
<path fill="#497F9C" d="M151.933,232.826c4.352-2.949,7.016-2.192,8.279,2.609c1.178,4.48,0.731,9.076,0.37,13.634
	C158.541,243.205,154.562,238.375,151.933,232.826z"/>
<path fill="#1B1C1C" d="M207.995,242.673c0-4.156,0.307-8.341-0.08-12.46c-0.457-4.879,2.848-5.187,5.465-3.955
	c2.406,1.132,3.797,0.36,5.7-0.327c10.038-3.622,17.043,1.309,17.088,11.987c0.026,5.984-0.1,11.972,0.051,17.953
	c0.071,2.809-0.49,4.16-3.769,4.199c-3.6,0.042-3.527-1.883-3.493-4.398c0.079-5.817,0.001-11.636,0.029-17.455
	c0.019-3.812-1.493-6.791-5.453-7.065c-3.852-0.267-6.583,1.924-7.528,5.875c-1.452,6.071-0.675,12.248-0.783,18.379
	c-0.047,2.69,0.078,4.744-3.796,4.678c-3.624-0.061-3.497-1.966-3.453-4.444C208.05,251.318,207.995,246.995,207.995,242.673z"/>
<path fill="#1C1E1F" d="M201.201,243.21c-0.001,4.331-0.121,8.666,0.043,12.99c0.103,2.709-0.662,3.846-3.607,3.854
	c-2.959,0.008-3.638-1.148-3.6-3.847c0.125-8.826,0.124-17.656,0-26.482c-0.038-2.692,0.628-3.862,3.594-3.853
	c2.937,0.009,3.713,1.133,3.615,3.848C201.083,234.211,201.201,238.713,201.201,243.21z"/>
<path fill="#1C1E1F" d="M201.144,217.548c0.554,3.071-1.189,3.403-3.706,3.508c-3.089,0.129-3.365-1.416-3.419-3.899
	c-0.06-2.745,1.204-3.205,3.565-3.25C200.297,213.855,201.668,214.669,201.144,217.548z"/>
<path fill="#F3F3F3" d="M81.497,223.607c2.153,5.755,4.04,10.797,5.896,15.758c-0.523,0.309-0.645,0.44-0.777,0.451
	c-11.593,0.932-11.592,0.932-7.557-9.694C79.758,228.281,80.439,226.434,81.497,223.607z"/>
<path fill="#F8F8F8" d="M127.604,243.484c-0.024,6.068-3.384,11.128-7.585,11.421c-4.123,0.287-7.844-4.486-8.37-10.736
	c-0.59-7.018,3.001-13.12,7.751-13.172C123.977,230.947,127.631,236.508,127.604,243.484z"/>
</svg>
