<?xml version="1.0" encoding="utf-8"?>
<!-- Generator: Adobe Illustrator 24.2.1, SVG Export Plug-In . SVG Version: 6.00 Build 0)  -->
<svg version="1.1" id="Layer_1" xmlns="http://www.w3.org/2000/svg" xmlns:xlink="http://www.w3.org/1999/xlink" x="0px" y="0px"
	 viewBox="0 0 150 200" style="enable-background:new 0 0 150 200;" xml:space="preserve">
<style type="text/css">
	.st0{fill:#E44D26;}
	.st1{fill:#F16529;}
	.st2{fill:#EBEBEB;}
	.st3{fill:#FFFFFF;}
</style>
<g>
	<polygon class="st0" points="33.8,178.7 24.7,43.1 125.3,43.1 116.2,178.7 74.9,193.8 	"/>
	<polygon class="st1" points="75,182.2 108.3,170.1 116.1,54.2 75,54.2 	"/>
	<polygon class="st2" points="75,104.5 58.3,104.5 57.2,87.4 75,87.4 75,70.8 75,70.8 43.4,70.8 43.7,75.3 46.8,121.1 75,121.1 	"/>
	<polygon class="st2" points="75,147.7 74.9,147.7 60.9,142.7 60,129.4 53.2,129.4 47.4,129.4 49.1,155.5 74.9,165 75,165 	"/>
	<path d="M34,6.2h6.4v8.4h5.9V6.2h6.4v25.3h-6.4V23h-5.9v8.5H34L34,6.2L34,6.2z"/>
	<path d="M61.1,14.6h-5.6V6.2h17.7v8.4h-5.6v16.9h-6.4L61.1,14.6L61.1,14.6z"/>
	<path d="M76,6.2h6.7l4.1,8.9l4.1-8.9h6.7v25.3h-6.4V19l-4.4,9h-0.1l-4.4-9v12.5H76L76,6.2L76,6.2z"/>
	<path d="M100.7,6.2h6.4v16.9h9v8.4h-15.4V6.2z"/>
	<polygon class="st3" points="75,104.5 75,121.1 90.5,121.1 89,142.7 75,147.7 75,165 100.8,155.5 101,152.7 103.9,108.9 
		104.3,104.5 100.9,104.5 	"/>
	<polygon class="st3" points="75,70.8 75,81.1 75,87.4 75,87.4 105.4,87.4 105.4,87.4 105.4,87.4 105.6,83.7 106.2,75.3 106.5,70.8 
			"/>
</g>
</svg>
