<?xml version="1.0" encoding="utf-8"?>
<!-- Generator: Adobe Illustrator 24.2.1, SVG Export Plug-In . SVG Version: 6.00 Build 0)  -->
<svg version="1.1" id="Layer_1" xmlns="http://www.w3.org/2000/svg" xmlns:xlink="http://www.w3.org/1999/xlink" x="0px" y="0px"
	 viewBox="0 0 841.89 595.28" enable-background="new 0 0 841.89 595.28" xml:space="preserve">
<g>
	<polygon fill="#265AA6" points="612.891,519.543 417.461,562.005 222.032,519.543 176.937,125.352 658,125.352 	"/>
	<polygon fill="#449DD7" points="417.461,157.279 417.461,528.145 417.906,528.237 576.06,493.879 612.561,157.279 	"/>
	<g>
		<polygon points="306.554,67.436 306.554,43.971 348.98,43.971 348.98,18.295 274.731,18.295 274.731,90.866 348.98,90.866 
			348.98,67.436 		"/>
		<path d="M425.295,43.971h29.657V18.295h-74.249c0,0,0,12.884,0,25.676c9.929,8.011,15.108,11.854,29.484,23.442
			c-8.393,0-29.484,0.023-29.484,0.023v23.419h74.249v-23.43L425.295,43.971z"/>
		<path d="M530.55,43.971h29.657V18.295h-74.263c0,0,0,12.884,0,25.676c9.929,8.011,15.122,11.854,29.484,23.442
			c-8.393,0-29.484,0.023-29.484,0.023v23.419h74.263v-23.43L530.55,43.971z"/>
	</g>
	<g>
		<polygon fill="#FFFFFF" points="417.289,255.838 277.414,302.849 282.048,349.385 417.289,302.722 561.153,253.106 
			567.107,205.505 		"/>
		
			<linearGradient id="SVGID_1_" gradientUnits="userSpaceOnUse" x1="347.3515" y1="248.6147" x2="347.3515" y2="342.1618" gradientTransform="matrix(1 0 0 -1 0 598)">
			<stop  offset="0.3865" style="stop-color:#DADADA;stop-opacity:0"/>
			<stop  offset="1" style="stop-color:#DADADA"/>
		</linearGradient>
		<polygon fill="url(#SVGID_1_)" points="277.414,302.849 282.048,349.385 417.289,302.722 417.289,255.838 		"/>
		
			<linearGradient id="SVGID_2_" gradientUnits="userSpaceOnUse" x1="492.1983" y1="295.2783" x2="492.1983" y2="392.495" gradientTransform="matrix(1 0 0 -1 0 598)">
			<stop  offset="0.3865" style="stop-color:#DADADA;stop-opacity:0"/>
			<stop  offset="1" style="stop-color:#DADADA"/>
		</linearGradient>
		<polygon fill="url(#SVGID_2_)" points="567.107,205.505 417.289,255.838 417.289,302.722 561.153,253.106 		"/>
		
			<linearGradient id="SVGID_3_" gradientUnits="userSpaceOnUse" x1="277.629" y1="206.9" x2="556.0598" y2="206.9" gradientTransform="matrix(1 0 0 -1 0 598)">
			<stop  offset="0" style="stop-color:#EEEDED"/>
			<stop  offset="1" style="stop-color:#FFFFFF"/>
		</linearGradient>
		<polygon fill="url(#SVGID_3_)" points="277.629,302.849 282.263,349.385 489.774,349.918 485.125,411.954 416.844,427.467 
			351.218,414.096 347.23,375.594 286.252,375.594 294.201,449.936 417.519,479.351 540.148,450.468 556.06,302.849 		"/>
		<g opacity="0.05">
			<polygon points="417.289,302.849 277.414,302.849 282.048,349.385 417.289,349.733 			"/>
			<polygon points="417.289,427.316 416.629,427.467 351.003,414.096 347.014,375.594 286.037,375.594 293.985,449.936 
				417.289,479.351 			"/>
		</g>
		
			<linearGradient id="SVGID_4_" gradientUnits="userSpaceOnUse" x1="264.8165" y1="368.6943" x2="567.1075" y2="368.6943" gradientTransform="matrix(1 0 0 -1 0 598)">
			<stop  offset="0" style="stop-color:#EEEDED"/>
			<stop  offset="1" style="stop-color:#FFFFFF"/>
		</linearGradient>
		<polygon fill="url(#SVGID_4_)" points="264.817,205.505 567.107,205.505 561.153,253.106 272.105,253.106 		"/>
		<polygon opacity="0.05" enable-background="new    " points="417.289,205.505 264.817,205.505 272.105,253.106 417.289,253.106 		
			"/>
	</g>
</g>
</svg>
