<?xml version="1.0" encoding="utf-8"?>
<!-- Generator: Adobe Illustrator 24.2.1, SVG Export Plug-In . SVG Version: 6.00 Build 0)  -->
<svg version="1.1" id="Layer_1" xmlns="http://www.w3.org/2000/svg" xmlns:xlink="http://www.w3.org/1999/xlink" x="0px" y="0px"
	 viewBox="0 0 141.732 141.732" enable-background="new 0 0 141.732 141.732" xml:space="preserve">
<g>
	<g>
		<path d="M17.598,98.118l-0.417-1.465h-1.544l-0.406,1.465h-1.058l1.748-5.545h1.026l1.737,5.545H17.598z M16.714,94.981
			c-0.027-0.09-0.057-0.193-0.087-0.313s-0.059-0.236-0.086-0.354c-0.027-0.115-0.053-0.223-0.076-0.32
			c-0.023-0.098-0.043-0.174-0.056-0.225c-0.014,0.051-0.033,0.127-0.057,0.225c-0.023,0.098-0.049,0.205-0.076,0.316
			c-0.026,0.113-0.056,0.23-0.086,0.35c-0.03,0.119-0.06,0.227-0.087,0.32l-0.264,0.936h1.138L16.714,94.981z"/>
		<path d="M22.078,96.979c0,0.395-0.148,0.699-0.441,0.91c-0.295,0.211-0.703,0.316-1.225,0.316c-0.285,0-0.569-0.039-0.854-0.119
			c-0.285-0.078-0.546-0.186-0.782-0.324l0.376-0.635c0.487,0.238,0.9,0.357,1.239,0.357c0.217,0,0.388-0.041,0.513-0.123
			c0.125-0.082,0.188-0.191,0.188-0.328c0-0.074-0.019-0.141-0.057-0.199C21,96.778,20.94,96.72,20.86,96.661
			c-0.082-0.057-0.188-0.119-0.318-0.182c-0.132-0.064-0.289-0.137-0.471-0.223c-0.162-0.072-0.311-0.148-0.45-0.225
			c-0.138-0.076-0.255-0.162-0.349-0.254c-0.095-0.092-0.169-0.199-0.223-0.32c-0.054-0.123-0.081-0.264-0.081-0.43
			c0-0.363,0.134-0.646,0.4-0.85c0.267-0.203,0.644-0.307,1.134-0.307c0.271,0,0.532,0.035,0.782,0.104
			c0.251,0.068,0.475,0.164,0.671,0.285l-0.396,0.643c-0.177-0.096-0.358-0.172-0.544-0.227c-0.187-0.057-0.364-0.082-0.534-0.082
			c-0.183,0-0.316,0.033-0.401,0.101c-0.084,0.068-0.126,0.156-0.126,0.262c0,0.063,0.011,0.121,0.035,0.17
			c0.023,0.051,0.067,0.102,0.131,0.156c0.064,0.051,0.151,0.109,0.264,0.17c0.11,0.059,0.258,0.131,0.439,0.209
			c0.202,0.09,0.381,0.178,0.536,0.262c0.154,0.084,0.284,0.178,0.389,0.277c0.104,0.102,0.185,0.213,0.243,0.336
			C22.05,96.663,22.078,96.81,22.078,96.979z"/>
		<path d="M23.958,99.585h-0.955l0.579-1.467l-1.483-4.158h1.036l0.62,1.973c0.026,0.08,0.056,0.174,0.086,0.281
			c0.03,0.107,0.061,0.217,0.091,0.324c0.031,0.109,0.058,0.211,0.082,0.305c0.024,0.096,0.042,0.17,0.056,0.223
			c0.014-0.053,0.034-0.127,0.061-0.223c0.027-0.094,0.056-0.197,0.087-0.309c0.03-0.111,0.06-0.221,0.092-0.328
			c0.03-0.107,0.059-0.201,0.086-0.281l0.63-1.965h1.036L23.958,99.585z"/>
		<path d="M28.854,98.118V95.56c0-0.348-0.048-0.596-0.146-0.744c-0.097-0.148-0.266-0.221-0.506-0.221
			c-0.153,0-0.299,0.031-0.436,0.098c-0.137,0.066-0.252,0.16-0.346,0.281v3.145h-0.985V93.96h0.985l-0.01,0.285
			c0.108-0.105,0.25-0.193,0.427-0.266c0.176-0.072,0.379-0.107,0.609-0.107c0.515,0,0.875,0.129,1.082,0.385
			c0.207,0.256,0.31,0.648,0.31,1.176v2.686H28.854z"/>
		<path d="M33.152,98.003c-0.237,0.135-0.549,0.203-0.935,0.203c-0.556,0-1.005-0.176-1.347-0.525
			c-0.342-0.354-0.513-0.893-0.513-1.621c0-0.734,0.168-1.281,0.503-1.645c0.335-0.361,0.801-0.543,1.397-0.543
			c0.189,0,0.361,0.02,0.514,0.057c0.152,0.037,0.289,0.09,0.411,0.156c0.122,0.066,0.23,0.145,0.325,0.236
			c0.095,0.09,0.18,0.188,0.254,0.287l-0.701,0.477c-0.135-0.17-0.264-0.291-0.386-0.365c-0.122-0.074-0.271-0.111-0.447-0.111
			c-0.312,0-0.536,0.125-0.676,0.375c-0.139,0.25-0.208,0.604-0.208,1.061c0,0.441,0.071,0.789,0.213,1.043
			c0.143,0.256,0.377,0.383,0.701,0.383c0.163,0,0.305-0.035,0.427-0.107c0.122-0.07,0.251-0.188,0.387-0.352l0.701,0.451
			C33.597,97.687,33.39,97.866,33.152,98.003z"/>
		<path d="M36.698,98.118V95.56c0-0.348-0.048-0.596-0.146-0.744c-0.097-0.148-0.266-0.221-0.506-0.221
			c-0.153,0-0.299,0.031-0.435,0.098s-0.253,0.16-0.346,0.281v3.145H34.28v-5.379l0.985-0.396l-0.011,1.902
			c0.108-0.105,0.251-0.193,0.428-0.266c0.176-0.072,0.379-0.107,0.609-0.107c0.515,0,0.875,0.129,1.082,0.385
			c0.207,0.256,0.311,0.648,0.311,1.176v2.686H36.698z"/>
		<path d="M40.812,94.776c-0.095-0.043-0.192-0.074-0.294-0.096c-0.102-0.021-0.23-0.031-0.386-0.031
			c-0.136,0-0.269,0.021-0.396,0.066c-0.129,0.045-0.251,0.131-0.366,0.258v3.145h-0.985V93.96h0.985v0.285
			c0.108-0.105,0.244-0.193,0.406-0.266c0.163-0.072,0.343-0.107,0.539-0.107c0.169,0,0.313,0.014,0.432,0.039
			c0.118,0.027,0.219,0.063,0.3,0.104L40.812,94.776z"/>
		<path d="M44.826,96.028c0,0.729-0.178,1.273-0.533,1.635c-0.355,0.361-0.828,0.543-1.417,0.543c-0.277,0-0.532-0.043-0.763-0.131
			c-0.229-0.086-0.43-0.219-0.6-0.395c-0.169-0.178-0.299-0.4-0.391-0.67c-0.091-0.269-0.137-0.588-0.137-0.951
			c0-0.734,0.173-1.281,0.518-1.645c0.346-0.361,0.816-0.543,1.412-0.543c0.285,0,0.544,0.045,0.778,0.135
			c0.233,0.092,0.433,0.223,0.599,0.4c0.166,0.178,0.297,0.4,0.392,0.67C44.779,95.347,44.826,95.663,44.826,96.028z M43.841,96.044
			c0-0.473-0.081-0.83-0.243-1.072c-0.163-0.242-0.396-0.363-0.701-0.363c-0.617,0-0.925,0.48-0.925,1.436
			c0,0.951,0.312,1.426,0.935,1.426c0.305,0,0.537-0.131,0.696-0.391C43.761,96.819,43.841,96.474,43.841,96.044z"/>
		<path d="M47.793,98.118V95.56c0-0.348-0.048-0.596-0.145-0.744c-0.098-0.148-0.267-0.221-0.507-0.221
			c-0.153,0-0.299,0.031-0.436,0.098c-0.137,0.066-0.252,0.16-0.346,0.281v3.145h-0.985V93.96h0.985l-0.01,0.285
			c0.108-0.105,0.25-0.193,0.427-0.266c0.176-0.072,0.379-0.107,0.609-0.107c0.515,0,0.876,0.129,1.082,0.385
			c0.206,0.256,0.31,0.648,0.31,1.176v2.686H47.793z"/>
		<path d="M53.138,96.028c0,0.729-0.178,1.273-0.534,1.635c-0.354,0.361-0.827,0.543-1.417,0.543c-0.277,0-0.531-0.043-0.762-0.131
			c-0.23-0.086-0.431-0.219-0.6-0.395c-0.169-0.178-0.3-0.4-0.392-0.67c-0.091-0.269-0.137-0.588-0.137-0.951
			c0-0.734,0.173-1.281,0.519-1.645c0.345-0.361,0.815-0.543,1.411-0.543c0.285,0,0.544,0.045,0.778,0.135
			c0.233,0.092,0.434,0.223,0.599,0.4c0.167,0.178,0.297,0.4,0.392,0.67C53.09,95.347,53.138,95.663,53.138,96.028z M52.151,96.044
			c0-0.473-0.081-0.83-0.243-1.072c-0.162-0.242-0.396-0.363-0.701-0.363c-0.616,0-0.925,0.48-0.925,1.436
			c0,0.951,0.312,1.426,0.935,1.426c0.306,0,0.537-0.131,0.696-0.391C52.072,96.819,52.151,96.474,52.151,96.044z"/>
		<path d="M56.073,98.118l0.011-0.285c-0.108,0.107-0.251,0.195-0.427,0.268c-0.177,0.07-0.38,0.105-0.609,0.105
			c-0.515,0-0.876-0.127-1.082-0.385c-0.207-0.256-0.311-0.646-0.311-1.176V93.96h0.985v2.559c0,0.35,0.049,0.598,0.146,0.746
			c0.097,0.146,0.266,0.221,0.506,0.221c0.154,0,0.299-0.033,0.437-0.1c0.136-0.066,0.252-0.16,0.345-0.279V93.96h0.986v4.158
			H56.073z"/>
		<path d="M60.778,96.979c0,0.395-0.148,0.699-0.441,0.91c-0.295,0.211-0.702,0.316-1.226,0.316c-0.284,0-0.568-0.039-0.853-0.119
			c-0.285-0.078-0.546-0.186-0.783-0.324l0.376-0.635c0.487,0.238,0.901,0.357,1.239,0.357c0.217,0,0.389-0.041,0.514-0.123
			c0.125-0.082,0.188-0.191,0.188-0.328c0-0.074-0.019-0.141-0.056-0.199c-0.038-0.057-0.097-0.115-0.178-0.174
			c-0.081-0.057-0.188-0.119-0.318-0.182c-0.131-0.064-0.288-0.137-0.471-0.223c-0.161-0.072-0.312-0.148-0.45-0.225
			c-0.138-0.076-0.254-0.162-0.349-0.254c-0.094-0.092-0.168-0.199-0.222-0.32c-0.055-0.123-0.081-0.264-0.081-0.43
			c0-0.363,0.134-0.646,0.4-0.85c0.267-0.203,0.645-0.307,1.134-0.307c0.271,0,0.532,0.035,0.782,0.104
			c0.251,0.068,0.475,0.164,0.671,0.285l-0.396,0.643c-0.176-0.096-0.357-0.172-0.543-0.227c-0.187-0.057-0.364-0.082-0.534-0.082
			c-0.183,0-0.316,0.033-0.401,0.101c-0.085,0.068-0.127,0.156-0.127,0.262c0,0.063,0.012,0.121,0.035,0.17
			c0.024,0.051,0.067,0.102,0.132,0.156c0.063,0.051,0.151,0.109,0.263,0.17c0.111,0.059,0.258,0.131,0.44,0.209
			c0.202,0.09,0.381,0.178,0.535,0.262c0.155,0.084,0.285,0.178,0.39,0.277c0.104,0.102,0.186,0.213,0.243,0.336
			C60.75,96.663,60.778,96.81,60.778,96.979z"/>
		<path d="M65.867,97.771c-0.292,0.291-0.745,0.436-1.36,0.436c-0.298,0-0.554-0.035-0.768-0.105
			c-0.213-0.072-0.39-0.172-0.528-0.297c-0.139-0.129-0.249-0.279-0.33-0.453c-0.081-0.174-0.139-0.367-0.173-0.578l0.904-0.182
			c0.074,0.311,0.178,0.529,0.309,0.656c0.133,0.127,0.327,0.191,0.585,0.191c0.311,0,0.524-0.08,0.64-0.238
			c0.115-0.158,0.173-0.373,0.173-0.643v-3.984h0.985v3.961C66.305,97.069,66.159,97.481,65.867,97.771z"/>
		<path d="M69.424,98.118l0.01-0.285c-0.135,0.123-0.293,0.215-0.472,0.279c-0.18,0.063-0.389,0.094-0.625,0.094
			c-0.196,0-0.383-0.029-0.559-0.088c-0.177-0.057-0.33-0.145-0.462-0.26c-0.133-0.117-0.238-0.262-0.315-0.438
			c-0.078-0.174-0.117-0.377-0.117-0.607c0-0.455,0.162-0.797,0.486-1.023c0.323-0.227,0.738-0.34,1.244-0.34
			c0.162,0,0.311,0.012,0.445,0.035c0.135,0.023,0.257,0.057,0.364,0.1v-0.404c0-0.201-0.051-0.352-0.152-0.449
			c-0.102-0.098-0.281-0.145-0.539-0.145c-0.169,0-0.335,0.02-0.497,0.059c-0.163,0.039-0.346,0.107-0.549,0.201l-0.417-0.578
			c0.245-0.127,0.5-0.225,0.768-0.293c0.268-0.068,0.523-0.104,0.768-0.104c0.284,0,0.528,0.021,0.733,0.064
			c0.204,0.043,0.372,0.111,0.502,0.209c0.131,0.098,0.225,0.227,0.282,0.385c0.059,0.158,0.088,0.354,0.088,0.586v3.002H69.424z
			 M69.424,96.298c-0.113-0.059-0.229-0.1-0.346-0.123c-0.117-0.023-0.266-0.037-0.446-0.037c-0.228,0-0.411,0.055-0.552,0.16
			c-0.141,0.105-0.21,0.271-0.21,0.498c0,0.248,0.058,0.43,0.175,0.547c0.117,0.117,0.279,0.174,0.486,0.174
			c0.408,0,0.705-0.129,0.893-0.389V96.298z"/>
		<path d="M73.173,98.118h-1.127l-1.342-4.158H71.7l0.65,2.242c0.02,0.068,0.044,0.152,0.071,0.25
			c0.026,0.098,0.054,0.197,0.081,0.301c0.027,0.104,0.051,0.199,0.071,0.289c0.019,0.09,0.036,0.158,0.051,0.205
			c0.007-0.047,0.021-0.117,0.046-0.209c0.022-0.092,0.049-0.191,0.075-0.293c0.027-0.104,0.053-0.205,0.076-0.305
			c0.024-0.102,0.046-0.186,0.066-0.254l0.62-2.227h0.995L73.173,98.118z"/>
		<path d="M77.014,98.118l0.01-0.285c-0.135,0.123-0.293,0.215-0.473,0.279c-0.179,0.063-0.388,0.094-0.624,0.094
			c-0.196,0-0.384-0.029-0.56-0.088c-0.176-0.057-0.33-0.145-0.462-0.26c-0.132-0.117-0.237-0.262-0.315-0.438
			c-0.077-0.174-0.116-0.377-0.116-0.607c0-0.455,0.162-0.797,0.485-1.023c0.324-0.227,0.739-0.34,1.245-0.34
			c0.162,0,0.31,0.012,0.445,0.035c0.135,0.023,0.256,0.057,0.364,0.1v-0.404c0-0.201-0.051-0.352-0.152-0.449
			c-0.102-0.098-0.281-0.145-0.539-0.145c-0.169,0-0.335,0.02-0.497,0.059c-0.163,0.039-0.346,0.107-0.549,0.201l-0.417-0.578
			c0.244-0.127,0.499-0.225,0.768-0.293c0.267-0.068,0.522-0.104,0.767-0.104c0.285,0,0.529,0.021,0.733,0.064
			c0.205,0.043,0.372,0.111,0.503,0.209c0.13,0.098,0.224,0.227,0.282,0.385c0.058,0.158,0.087,0.354,0.087,0.586v3.002H77.014z
			 M77.014,96.298c-0.113-0.059-0.229-0.1-0.347-0.123c-0.117-0.023-0.266-0.037-0.445-0.037c-0.229,0-0.412,0.055-0.552,0.16
			c-0.141,0.105-0.211,0.271-0.211,0.498c0,0.248,0.059,0.43,0.176,0.547c0.116,0.117,0.279,0.174,0.486,0.174
			c0.407,0,0.705-0.129,0.893-0.389V96.298z"/>
		<path d="M81.708,96.979c0,0.395-0.147,0.699-0.442,0.91c-0.294,0.211-0.702,0.316-1.225,0.316c-0.284,0-0.569-0.039-0.853-0.119
			c-0.285-0.078-0.546-0.186-0.783-0.324l0.376-0.635c0.487,0.238,0.9,0.357,1.24,0.357c0.217,0,0.387-0.041,0.513-0.123
			c0.125-0.082,0.188-0.191,0.188-0.328c0-0.074-0.019-0.141-0.056-0.199c-0.036-0.057-0.096-0.115-0.176-0.174
			c-0.082-0.057-0.188-0.119-0.319-0.182c-0.131-0.064-0.288-0.137-0.47-0.223c-0.162-0.072-0.313-0.148-0.45-0.225
			c-0.139-0.076-0.255-0.162-0.349-0.254c-0.095-0.092-0.169-0.199-0.223-0.32c-0.055-0.123-0.081-0.264-0.081-0.43
			c0-0.363,0.133-0.646,0.4-0.85c0.267-0.203,0.646-0.307,1.134-0.307c0.271,0,0.531,0.035,0.782,0.104
			c0.25,0.068,0.475,0.164,0.671,0.285l-0.396,0.643c-0.176-0.096-0.357-0.172-0.543-0.227c-0.188-0.057-0.365-0.082-0.534-0.082
			c-0.183,0-0.316,0.033-0.401,0.101c-0.085,0.068-0.127,0.156-0.127,0.262c0,0.063,0.012,0.121,0.035,0.17
			c0.024,0.051,0.067,0.102,0.132,0.156c0.064,0.051,0.151,0.109,0.263,0.17c0.111,0.059,0.258,0.131,0.44,0.209
			c0.202,0.09,0.381,0.178,0.535,0.262c0.155,0.084,0.285,0.178,0.39,0.277c0.104,0.102,0.186,0.213,0.242,0.336
			C81.679,96.663,81.708,96.81,81.708,96.979z"/>
		<path d="M84.796,98.003c-0.236,0.135-0.548,0.203-0.934,0.203c-0.557,0-1.005-0.176-1.347-0.525
			c-0.343-0.354-0.513-0.893-0.513-1.621c0-0.734,0.167-1.281,0.502-1.645c0.336-0.361,0.801-0.543,1.397-0.543
			c0.189,0,0.36,0.02,0.513,0.057c0.152,0.037,0.29,0.09,0.411,0.156c0.123,0.066,0.231,0.145,0.326,0.236
			c0.094,0.09,0.179,0.188,0.254,0.287l-0.701,0.477c-0.136-0.17-0.265-0.291-0.387-0.365c-0.121-0.074-0.271-0.111-0.447-0.111
			c-0.311,0-0.536,0.125-0.675,0.375c-0.139,0.25-0.208,0.604-0.208,1.061c0,0.441,0.07,0.789,0.213,1.043
			c0.142,0.256,0.376,0.383,0.701,0.383c0.163,0,0.305-0.035,0.426-0.107c0.123-0.07,0.251-0.188,0.387-0.352l0.701,0.451
			C85.239,97.687,85.033,97.866,84.796,98.003z"/>
		<path d="M88.352,94.776c-0.095-0.043-0.192-0.074-0.294-0.096c-0.102-0.021-0.23-0.031-0.387-0.031
			c-0.136,0-0.268,0.021-0.396,0.066c-0.129,0.045-0.251,0.131-0.366,0.258v3.145h-0.985V93.96h0.985v0.285
			c0.108-0.105,0.244-0.193,0.407-0.266c0.162-0.072,0.342-0.107,0.538-0.107c0.169,0,0.313,0.014,0.432,0.039
			c0.118,0.027,0.219,0.063,0.299,0.104L88.352,94.776z"/>
		<path d="M90.049,92.843c0,0.127-0.06,0.236-0.178,0.328c-0.119,0.094-0.26,0.139-0.422,0.139c-0.169,0-0.314-0.045-0.432-0.139
			c-0.118-0.092-0.178-0.201-0.178-0.328c0-0.133,0.06-0.244,0.178-0.338c0.118-0.092,0.263-0.139,0.432-0.139
			c0.162,0,0.303,0.047,0.422,0.139C89.989,92.599,90.049,92.71,90.049,92.843z M88.962,98.118V93.96h0.985v4.158H88.962z"/>
		<path d="M94.296,96.083c0,0.697-0.147,1.227-0.44,1.584c-0.293,0.359-0.703,0.539-1.229,0.539c-0.357,0-0.665-0.102-0.921-0.309
			v1.355l-0.985,0.395V93.96h0.985l-0.011,0.277c0.129-0.105,0.268-0.193,0.417-0.262c0.148-0.068,0.343-0.104,0.579-0.104
			c0.244,0,0.464,0.037,0.66,0.111c0.196,0.074,0.364,0.199,0.504,0.373c0.139,0.174,0.247,0.402,0.324,0.686
			C94.257,95.323,94.296,95.671,94.296,96.083z M93.31,96.122c0-0.543-0.065-0.936-0.196-1.176c-0.131-0.24-0.338-0.359-0.621-0.359
			c-0.161,0-0.312,0.033-0.449,0.105c-0.139,0.072-0.251,0.162-0.338,0.273v2.154c0.107,0.127,0.235,0.221,0.384,0.283
			c0.147,0.061,0.3,0.09,0.454,0.09c0.249,0,0.439-0.105,0.57-0.316C93.244,96.966,93.31,96.614,93.31,96.122z"/>
		<path d="M96.948,98.017c-0.115,0.059-0.244,0.104-0.387,0.139c-0.142,0.035-0.305,0.051-0.487,0.051
			c-0.362,0-0.626-0.092-0.79-0.277c-0.164-0.184-0.246-0.445-0.246-0.783v-2.473h-0.579V93.96h0.579v-1.213l0.985-0.404v1.617
			h1.026v0.713h-1.026v2.4c0,0.148,0.033,0.254,0.102,0.318c0.067,0.063,0.169,0.094,0.305,0.094c0.129,0,0.247-0.018,0.355-0.051
			c0.108-0.035,0.2-0.076,0.274-0.123L96.948,98.017z"/>
		<path d="M102.546,98.118l-0.417-1.465h-1.544l-0.406,1.465h-1.057l1.747-5.545h1.026l1.737,5.545H102.546z M101.662,94.981
			c-0.027-0.09-0.057-0.193-0.087-0.313c-0.03-0.119-0.06-0.236-0.086-0.354c-0.027-0.115-0.053-0.223-0.076-0.32
			c-0.023-0.098-0.043-0.174-0.056-0.225c-0.014,0.051-0.033,0.127-0.057,0.225c-0.023,0.098-0.049,0.205-0.076,0.316
			c-0.026,0.113-0.056,0.23-0.086,0.35c-0.03,0.119-0.06,0.227-0.086,0.32l-0.265,0.936h1.138L101.662,94.981z"/>
		<path d="M106.457,98.118V95.56c0-0.348-0.048-0.596-0.145-0.744c-0.098-0.148-0.267-0.221-0.507-0.221
			c-0.153,0-0.298,0.031-0.436,0.098c-0.137,0.066-0.252,0.16-0.346,0.281v3.145h-0.985V93.96h0.985l-0.01,0.285
			c0.108-0.105,0.25-0.193,0.427-0.266c0.176-0.072,0.38-0.107,0.609-0.107c0.515,0,0.876,0.129,1.082,0.385
			c0.206,0.256,0.31,0.648,0.31,1.176v2.686H106.457z"/>
		<path d="M110.552,98.118l0.01-0.275c-0.128,0.105-0.268,0.191-0.416,0.262c-0.149,0.068-0.343,0.102-0.579,0.102
			c-0.244,0-0.465-0.037-0.661-0.109c-0.196-0.076-0.364-0.199-0.503-0.373c-0.139-0.176-0.247-0.404-0.325-0.686
			c-0.077-0.283-0.116-0.629-0.116-1.041c0-0.697,0.146-1.227,0.439-1.586c0.294-0.359,0.704-0.539,1.23-0.539
			c0.357,0,0.664,0.104,0.921,0.311v-1.443l0.985-0.396v5.775H110.552z M110.552,94.958c-0.108-0.127-0.235-0.221-0.384-0.281
			c-0.148-0.06-0.3-0.09-0.454-0.09c-0.256,0-0.447,0.105-0.576,0.316c-0.128,0.211-0.192,0.563-0.192,1.053
			c0,0.545,0.066,0.938,0.196,1.176c0.132,0.242,0.339,0.361,0.621,0.361c0.162,0,0.312-0.035,0.45-0.107
			c0.138-0.07,0.25-0.162,0.338-0.271V94.958z"/>
		<path d="M116.841,98.118l-0.538-1.076c-0.034-0.068-0.073-0.148-0.117-0.242c-0.045-0.092-0.09-0.186-0.138-0.281
			c-0.047-0.096-0.09-0.186-0.127-0.27c-0.037-0.084-0.063-0.146-0.076-0.189c-0.021,0.047-0.049,0.111-0.087,0.193
			c-0.037,0.082-0.077,0.17-0.121,0.266c-0.044,0.096-0.088,0.191-0.132,0.285c-0.045,0.096-0.083,0.176-0.117,0.238l-0.538,1.076
			h-1.067l1.555-2.852l-1.453-2.693h1.098l0.437,0.879c0.034,0.064,0.073,0.145,0.117,0.242c0.044,0.098,0.09,0.195,0.137,0.293
			c0.047,0.098,0.09,0.189,0.128,0.273c0.036,0.084,0.062,0.148,0.075,0.19c0.021-0.047,0.049-0.113,0.086-0.197
			c0.038-0.084,0.078-0.176,0.123-0.273c0.044-0.098,0.087-0.193,0.132-0.289c0.044-0.094,0.083-0.174,0.117-0.238l0.437-0.879
			h1.066l-1.453,2.67l1.555,2.875H116.841z"/>
		<path d="M122.326,98.118v-2.232c0-0.084,0-0.195,0-0.33c0-0.135,0.002-0.27,0.006-0.408c0.003-0.137,0.007-0.264,0.01-0.379
			c0.004-0.117,0.006-0.201,0.006-0.254c-0.021,0.059-0.053,0.145-0.097,0.262c-0.045,0.115-0.094,0.244-0.147,0.385
			c-0.055,0.139-0.108,0.279-0.163,0.424c-0.054,0.141-0.102,0.264-0.142,0.363l-0.915,2.322l-0.914-2.322
			c-0.04-0.1-0.088-0.223-0.142-0.363c-0.055-0.145-0.109-0.285-0.163-0.424c-0.054-0.141-0.104-0.27-0.147-0.385
			c-0.044-0.117-0.076-0.203-0.097-0.262c0,0.053,0.002,0.137,0.005,0.254c0.004,0.115,0.007,0.242,0.011,0.379
			c0.004,0.139,0.005,0.273,0.005,0.408c0,0.135,0,0.246,0,0.33v2.232h-0.935v-5.545h1.047l0.914,2.307
			c0.033,0.084,0.072,0.184,0.116,0.301c0.045,0.115,0.087,0.232,0.128,0.352c0.04,0.119,0.079,0.23,0.116,0.334
			c0.037,0.101,0.063,0.178,0.076,0.225c0.021-0.053,0.048-0.131,0.082-0.234c0.034-0.102,0.072-0.215,0.116-0.336
			c0.044-0.121,0.088-0.242,0.133-0.365c0.043-0.121,0.082-0.221,0.116-0.301l0.915-2.281h1.045v5.545H122.326z"/>
		<path d="M124.298,98.118v-5.545h0.985v4.785h2.276v0.76H124.298z"/>
	</g>
	<g>
		<path fill="#177BC0" d="M74.168,64.035l-9.191-9.191l-9.191,9.191l3.253,3.252l3-2.998v1.131v16.747
			c0,1.199,0.077,4.32-5.456,4.32c-5.608,0-5.852-2.941-5.904-4.855v-0.57h-6.984v0.57c0,2.91-0.398,9.84,12.889,9.84
			c11.672,0,11.333-6.371,11.333-8.477V65.419h0.001v-1.117l2.986,2.999L74.168,64.035z"/>
		<g>
			<polygon fill="#024774" points="33.038,80.544 33.038,81.085 29.063,71.349 29.063,70.809 			"/>
		</g>
		<g>
			<polygon fill="#044A79" points="29.063,70.809 29.063,71.349 24.976,81.085 24.976,80.544 			"/>
		</g>
		<g>
			<rect x="23.189" y="84.81" fill="#024774" width="11.587" height="0.539"/>
		</g>
		<g>
			<linearGradient id="SVGID_1_" gradientUnits="userSpaceOnUse" x1="29.0805" y1="89.8916" x2="29.0805" y2="65.1499">
				<stop  offset="0" style="stop-color:#3C95D1"/>
				<stop  offset="0.1" style="stop-color:#0684C3"/>
				<stop  offset="0.4" style="stop-color:#0A74BB"/>
				<stop  offset="0.6" style="stop-color:#0A74BB"/>
				<stop  offset="0.9" style="stop-color:#0684C3"/>
				<stop  offset="1" style="stop-color:#3C95D1"/>
			</linearGradient>
			<path fill="url(#SVGID_1_)" d="M32.852,65.15l11.137,24.742h-7.135l-2.077-5.082H23.189l-2.135,5.082h-6.882L25.408,65.15H32.852
				z M24.976,80.544h8.061l-3.975-9.735L24.976,80.544"/>
		</g>
		<g>
			<path fill="#0A74BB" d="M32.849,65.15l11.138,24.742h-7.131l-2.077-5.082H23.187l-2.135,5.082h-6.876L25.41,65.15H32.849z
				 M24.974,80.544h8.062l-3.976-9.735L24.974,80.544"/>
		</g>
		<g>
			<rect x="14.173" y="89.892" fill="#024774" width="6.882" height="0.541"/>
		</g>
		<g>
			<polygon fill="#044A79" points="23.189,84.81 23.189,85.349 21.055,90.433 21.055,89.892 			"/>
		</g>
		<g>
			<rect x="36.854" y="89.892" fill="#024774" width="7.135" height="0.541"/>
		</g>
		<g>
			<polygon fill="#024774" points="36.854,89.892 36.854,90.433 34.776,85.349 34.776,84.81 			"/>
		</g>
		<g>
			<g>
				<polygon fill="#FFFFFF" points="33.038,80.194 33.038,80.733 29.063,70.998 29.063,70.459 				"/>
			</g>
			<g>
				<polygon fill="#FFFFFF" points="29.063,70.459 29.063,70.998 24.976,80.733 24.976,80.194 				"/>
			</g>
			<g>
				<rect x="23.189" y="84.458" fill="#FFFFFF" width="11.587" height="0.541"/>
			</g>
			<g>
				<rect x="14.173" y="89.542" fill="#FFFFFF" width="6.882" height="0.539"/>
			</g>
			<g>
				<polygon fill="#FFFFFF" points="23.189,84.458 23.189,84.999 21.055,90.081 21.055,89.542 				"/>
			</g>
			<g>
				<rect x="36.854" y="89.542" fill="#FFFFFF" width="7.135" height="0.539"/>
			</g>
			<g>
				<polygon fill="#FFFFFF" points="36.854,89.542 36.854,90.081 34.776,84.999 34.776,84.458 				"/>
			</g>
		</g>
		<g>
			<linearGradient id="SVGID_2_" gradientUnits="userSpaceOnUse" x1="83.1601" y1="89.8916" x2="83.1601" y2="65.1499">
				<stop  offset="0" style="stop-color:#3C95D1"/>
				<stop  offset="0.1" style="stop-color:#0684C3"/>
				<stop  offset="0.4" style="stop-color:#0A74BB"/>
				<stop  offset="0.6" style="stop-color:#0A74BB"/>
				<stop  offset="0.9" style="stop-color:#0684C3"/>
				<stop  offset="1" style="stop-color:#3C95D1"/>
			</linearGradient>
			<path fill="url(#SVGID_2_)" d="M86.928,65.15l11.138,24.742h-7.131l-2.077-5.082H77.266l-2.134,5.082h-6.877L79.49,65.15H86.928z
				 M79.053,80.544h8.063l-3.976-9.735L79.053,80.544"/>
		</g>
		<g>
			<g>
				<polygon fill="#024774" points="87.115,80.544 87.115,81.085 83.14,71.349 83.14,70.809 				"/>
			</g>
			<g>
				<polygon fill="#044A79" points="83.14,70.809 83.14,71.349 79.053,81.085 79.053,80.544 				"/>
			</g>
			<g>
				<rect x="77.266" y="84.81" fill="#024774" width="11.592" height="0.539"/>
			</g>
			<g>
				<rect x="68.255" y="89.892" fill="#024774" width="6.877" height="0.541"/>
			</g>
			<g>
				<polygon fill="#044A79" points="77.266,84.81 77.266,85.349 75.132,90.433 75.132,89.892 				"/>
			</g>
			<g>
				<rect x="90.935" y="89.892" fill="#024774" width="7.131" height="0.541"/>
			</g>
			<g>
				<polygon fill="#024774" points="90.935,89.892 90.935,90.433 88.857,85.349 88.857,84.81 				"/>
			</g>
		</g>
		<g>
			<g>
				<polygon fill="#FFFFFF" points="87.115,80.194 87.115,80.733 83.14,70.998 83.14,70.459 				"/>
			</g>
			<g>
				<polygon fill="#FFFFFF" points="83.14,70.459 83.14,70.998 79.053,80.733 79.053,80.194 				"/>
			</g>
			<g>
				<rect x="77.266" y="84.458" fill="#FFFFFF" width="11.592" height="0.541"/>
			</g>
			<g>
				<rect x="68.255" y="89.542" fill="#FFFFFF" width="6.877" height="0.539"/>
			</g>
			<g>
				<polygon fill="#FFFFFF" points="77.266,84.458 77.266,84.999 75.132,90.081 75.132,89.542 				"/>
			</g>
			<g>
				<rect x="90.935" y="89.542" fill="#FFFFFF" width="7.131" height="0.539"/>
			</g>
			<g>
				<polygon fill="#FFFFFF" points="90.935,89.542 90.935,90.081 88.857,84.999 88.857,84.458 				"/>
			</g>
		</g>
		<g>
			<linearGradient id="SVGID_3_" gradientUnits="userSpaceOnUse" x1="113.5947" y1="89.8916" x2="113.5947" y2="65.1499">
				<stop  offset="0" style="stop-color:#3C95D1"/>
				<stop  offset="0.1" style="stop-color:#0684C3"/>
				<stop  offset="0.4" style="stop-color:#0A74BB"/>
				<stop  offset="0.6" style="stop-color:#0A74BB"/>
				<stop  offset="0.9" style="stop-color:#0684C3"/>
				<stop  offset="1" style="stop-color:#3C95D1"/>
			</linearGradient>
			<polygon fill="url(#SVGID_3_)" points="117.331,77.087 127.56,89.892 119.573,89.892 113.593,81.458 107.273,89.892 
				99.63,89.892 109.751,77.288 100.12,65.15 107.978,65.15 113.593,73.21 119.359,65.15 126.962,65.15 			"/>
		</g>
		<g>
			<g>
				<polygon fill="#034775" points="126.962,65.15 126.962,65.691 117.331,77.626 117.331,77.087 				"/>
			</g>
			<g>
				<polygon fill="#024774" points="109.751,77.288 109.751,77.827 100.12,65.691 100.12,65.15 				"/>
			</g>
			<g>
				<polygon fill="#024774" points="119.573,89.892 119.573,90.433 113.593,81.997 113.593,81.458 				"/>
			</g>
			<g>
				<rect x="99.63" y="89.892" fill="#024774" width="7.644" height="0.541"/>
			</g>
			<g>
				<polygon fill="#034875" points="113.593,81.458 113.593,81.997 107.273,90.433 107.273,89.892 				"/>
			</g>
			<g>
				<rect x="119.573" y="89.892" fill="#024774" width="7.986" height="0.541"/>
			</g>
		</g>
		<g>
			<g>
				<polygon fill="#FFFFFF" points="126.962,64.8 126.962,65.339 117.331,77.276 117.331,76.735 				"/>
			</g>
			<g>
				<polygon fill="#FFFFFF" points="109.751,76.937 109.751,77.478 100.12,65.339 100.12,64.8 				"/>
			</g>
			<g>
				<polygon fill="#FFFFFF" points="119.573,89.542 119.573,90.081 113.593,81.647 113.593,81.108 				"/>
			</g>
			<g>
				<rect x="99.63" y="89.542" fill="#FFFFFF" width="7.644" height="0.539"/>
			</g>
			<g>
				<polygon fill="#FFFFFF" points="113.593,81.108 113.593,81.647 107.273,90.081 107.273,89.542 				"/>
			</g>
			<g>
				<rect x="119.573" y="89.542" fill="#FFFFFF" width="7.986" height="0.539"/>
			</g>
		</g>
		<g enable-background="new    ">
			<defs>
				<path id="SVGID_4_" enable-background="new    " d="M62.038,81.993v0.539c0-0.033,0-0.066,0-0.1v-0.539
					C62.038,81.925,62.038,81.958,62.038,81.993z"/>
			</defs>
			<clipPath id="SVGID_5_">
				<use xlink:href="#SVGID_4_"  overflow="visible"/>
			</clipPath>
			<g clip-path="url(#SVGID_5_)" enable-background="new    ">
				<path fill="#044977" d="M62.038,81.993v0.539c0-0.033,0-0.066,0-0.1v-0.539C62.038,81.925,62.038,81.958,62.038,81.993"/>
			</g>
		</g>
		<g>
			<g>
				<polygon fill="#024774" points="62.038,64.022 62.038,64.562 59.038,67.556 59.038,67.016 				"/>
			</g>
			<g>
				<polygon fill="#024774" points="59.038,67.016 59.038,67.556 55.785,64.309 55.785,63.768 				"/>
			</g>
			<g>
				<polygon fill="#024774" points="70.902,67.034 70.902,67.575 67.917,64.576 67.917,64.036 				"/>
			</g>
			<g>
				<polygon fill="#024774" points="74.169,63.768 74.169,64.309 70.902,67.575 70.902,67.034 				"/>
			</g>
			<g enable-background="new    ">
				<defs>
					<path id="SVGID_6_" enable-background="new    " d="M67.918,83.104v0.541c0,2.398-0.303,8.092-11.335,8.092
						c-12.533,0-12.89-6.162-12.89-9.305v-0.539c0,3.141,0.356,9.303,12.89,9.303C67.615,91.196,67.918,85.505,67.918,83.104z"/>
				</defs>
				<clipPath id="SVGID_7_">
					<use xlink:href="#SVGID_6_"  overflow="visible"/>
				</clipPath>
				<g clip-path="url(#SVGID_7_)" enable-background="new    ">
					<path fill="#084F80" d="M67.918,83.104v0.541c0,0.436-0.011,0.979-0.093,1.576v-0.539
						C67.907,84.083,67.918,83.54,67.918,83.104"/>
					<path fill="#074D7D" d="M67.825,84.683v0.539c-0.053,0.383-0.134,0.787-0.262,1.199v-0.539
						C67.691,85.468,67.772,85.063,67.825,84.683"/>
					<path fill="#054B7A" d="M67.563,85.882v0.539c-0.114,0.369-0.264,0.744-0.462,1.117v-0.541
						C67.3,86.626,67.449,86.249,67.563,85.882"/>
					<path fill="#044977" d="M67.102,86.997v0.541c-1.149,2.154-3.906,4.199-10.519,4.199c-12.533,0-12.89-6.162-12.89-9.305v-0.539
						c0,3.141,0.356,9.303,12.89,9.303C63.195,91.196,65.952,89.151,67.102,86.997"/>
				</g>
			</g>
		</g>
		<g>
			<linearGradient id="SVGID_8_" gradientUnits="userSpaceOnUse" x1="58.9309" y1="91.1962" x2="58.9309" y2="54.5761">
				<stop  offset="0" style="stop-color:#3C95D1"/>
				<stop  offset="0.1" style="stop-color:#0684C3"/>
				<stop  offset="0.4" style="stop-color:#0A74BB"/>
				<stop  offset="0.6" style="stop-color:#0A74BB"/>
				<stop  offset="0.75" style="stop-color:#0684C3"/>
				<stop  offset="0.9" style="stop-color:#3C95D1"/>
			</linearGradient>
			<path fill="url(#SVGID_8_)" d="M64.975,54.576l9.194,9.192l-3.267,3.266l-2.985-2.998v1.113v17.575
				c0,2.102,0.338,8.473-11.334,8.473c-13.29,0-12.889-6.928-12.889-9.838v-0.57h6.983v0.57c0.054,1.916,0.294,4.857,5.905,4.857
				c5.53,0,5.455-3.123,5.455-4.322V65.149v-1.127l-3,2.994l-3.253-3.248L64.975,54.576z"/>
		</g>
		<g enable-background="new    ">
			<defs>
				<path id="SVGID_9_" enable-background="new    " d="M44.188,50.716v-0.54c0,0.139,0.001,0.268,0.001,0.383v0.54
					C44.189,50.983,44.188,50.855,44.188,50.716z"/>
			</defs>
			<clipPath id="SVGID_10_">
				<use xlink:href="#SVGID_9_"  overflow="visible"/>
			</clipPath>
			<g clip-path="url(#SVGID_10_)" enable-background="new    ">
				<path fill="#044977" d="M44.189,50.559v0.54c0-0.116-0.001-0.244-0.001-0.383v-0.54C44.188,50.315,44.189,50.443,44.189,50.559"
					/>
			</g>
		</g>
		<g enable-background="new    ">
			<defs>
				<path id="SVGID_11_" enable-background="new    " d="M68.417,51.394c0,0.188-0.001,0.364-0.001,0.528v0.541
					c0-0.164,0.001-0.341,0.001-0.528C68.417,51.772,68.417,51.557,68.417,51.394z"/>
			</defs>
			<clipPath id="SVGID_12_">
				<use xlink:href="#SVGID_11_"  overflow="visible"/>
			</clipPath>
			<g clip-path="url(#SVGID_12_)" enable-background="new    ">
				<path fill="#084F80" d="M68.417,51.394v0.541c0,0.187-0.001,0.364-0.001,0.528v-0.541
					C68.416,51.758,68.417,51.582,68.417,51.394"/>
			</g>
		</g>
		<g>
			<linearGradient id="SVGID_13_" gradientUnits="userSpaceOnUse" x1="53.1769" y1="78.7099" x2="53.1769" y2="42.0844">
				<stop  offset="0.1" style="stop-color:#0684C3"/>
				<stop  offset="0.4" style="stop-color:#0A74BB"/>
				<stop  offset="0.65" style="stop-color:#3C95D1"/>
				<stop  offset="1" style="stop-color:#6BB3E2"/>
			</linearGradient>
			<path fill="url(#SVGID_13_)" d="M55.522,42.084c13.29,0,12.894,6.928,12.894,9.837v0.571h-6.988v-0.571
				c-0.054-1.916-0.299-4.852-5.905-4.852c-5.535,0-5.455,3.119-5.455,4.317v16.748v1.128l2.999-2.994l3.254,3.249l-9.194,9.192
				l-9.189-9.192l3.267-3.267l2.986,2.998v-1.114V50.559C44.189,48.456,43.851,42.084,55.522,42.084z"/>
		</g>
		<g>
			<path fill="#0A74BB" d="M86.928,65.15l11.138,24.742h-7.131l-2.077-5.082H77.266l-2.134,5.082h-6.877L79.49,65.15H86.928z
				 M79.053,80.544h8.063l-3.976-9.735L79.053,80.544"/>
		</g>
		<g>
			<polygon fill="#0A74BB" points="117.331,77.087 127.56,89.892 119.573,89.892 113.593,81.458 107.273,89.892 99.63,89.892 
				109.751,77.288 100.12,65.15 107.978,65.15 113.593,73.21 119.359,65.15 126.962,65.15 			"/>
		</g>
		<g>
			<path fill="#0A74BB" d="M64.975,54.576l9.194,9.192l-3.267,3.266l-2.985-2.998v1.113v17.575c0,2.102,0.338,8.473-11.334,8.473
				c-13.29,0-12.889-6.928-12.889-9.838v-0.57h6.983v0.57c0.054,1.916,0.294,4.857,5.905,4.857c5.53,0,5.455-3.123,5.455-4.322
				V65.149v-1.127l-3,2.994l-3.253-3.248L64.975,54.576z"/>
		</g>
		<g>
			<path fill="#0A74BB" d="M55.522,42.084c13.29,0,12.894,6.928,12.894,9.837v0.571h-6.988v-0.571
				c-0.054-1.916-0.299-4.852-5.905-4.852c-5.535,0-5.455,3.119-5.455,4.317v16.748v1.128l2.999-2.994l3.254,3.249l-9.194,9.192
				l-9.189-9.192l3.267-3.267l2.986,2.998v-1.114V50.559C44.189,48.456,43.851,42.084,55.522,42.084z"/>
		</g>
		<g>
			<g enable-background="new    ">
				<defs>
					<path id="SVGID_14_" enable-background="new    " d="M50.067,51.822v-0.54c0-1.266,0.075-4.212,5.455-4.212
						c5.606,0,5.852,2.936,5.905,4.852v0.541c-0.054-1.916-0.299-4.852-5.905-4.852C50.143,47.61,50.067,50.556,50.067,51.822z"/>
				</defs>
				<clipPath id="SVGID_15_">
					<use xlink:href="#SVGID_14_"  overflow="visible"/>
				</clipPath>
				<g clip-path="url(#SVGID_15_)" enable-background="new    ">
					<path fill="#044977" d="M61.428,51.922v0.541c-0.054-1.916-0.299-4.852-5.905-4.852c-3.114,0-4.451,0.987-5.025,2.064v-0.54
						c0.574-1.077,1.911-2.064,5.025-2.064C61.129,47.07,61.374,50.006,61.428,51.922"/>
					<path fill="#054B7A" d="M50.497,49.134v0.54c-0.102,0.192-0.18,0.387-0.239,0.58v-0.541
						C50.317,49.521,50.395,49.326,50.497,49.134"/>
					<path fill="#074D7D" d="M50.258,49.713v0.541c-0.067,0.219-0.111,0.435-0.14,0.641v-0.54
						C50.146,50.149,50.19,49.933,50.258,49.713"/>
					<path fill="#084F80" d="M50.118,50.354v0.54c-0.048,0.352-0.051,0.673-0.051,0.927v-0.54
						C50.067,51.028,50.07,50.707,50.118,50.354"/>
				</g>
			</g>
			<g>
				<rect x="61.428" y="52.493" fill="#024774" width="6.988" height="0.54"/>
			</g>
			<g>
				<polygon fill="#024774" points="56.32,69.518 56.32,70.057 47.126,79.249 47.126,78.71 				"/>
			</g>
			<g>
				<polygon fill="#024774" points="47.126,78.71 47.126,79.249 37.937,70.057 37.937,69.518 				"/>
			</g>
		</g>
		<g>
			<g enable-background="new    ">
				<defs>
					<path id="SVGID_16_" enable-background="new    " d="M50.067,51.471v-0.54c0-1.266,0.075-4.212,5.455-4.212
						c5.606,0,5.852,2.936,5.905,4.852v0.541c-0.054-1.916-0.299-4.852-5.905-4.852C50.143,47.26,50.067,50.206,50.067,51.471z"/>
				</defs>
				<use xlink:href="#SVGID_16_"  overflow="visible" fill="#FFFFFF"/>
				<clipPath id="SVGID_17_">
					<use xlink:href="#SVGID_16_"  overflow="visible"/>
				</clipPath>
				<g clip-path="url(#SVGID_17_)" enable-background="new    ">
					<path fill="#FFFFFF" d="M61.428,51.571v0.541c-0.054-1.916-0.299-4.852-5.905-4.852c-3.114,0-4.451,0.987-5.025,2.064v-0.54
						c0.574-1.077,1.911-2.064,5.025-2.064C61.129,46.72,61.374,49.656,61.428,51.571"/>
					<path fill="#FFFFFF" d="M50.497,48.784v0.54c-0.102,0.192-0.18,0.387-0.239,0.58v-0.541
						C50.317,49.17,50.395,48.976,50.497,48.784"/>
					<path fill="#FFFFFF" d="M50.258,49.363v0.541c-0.067,0.219-0.111,0.435-0.14,0.641v-0.54
						C50.146,49.798,50.19,49.582,50.258,49.363"/>
					<path fill="#FFFFFF" d="M50.118,50.004v0.54c-0.048,0.352-0.051,0.673-0.051,0.927v-0.54
						C50.067,50.677,50.07,50.356,50.118,50.004"/>
				</g>
			</g>
			<g>
				<rect x="61.428" y="52.142" fill="#FFFFFF" width="6.988" height="0.54"/>
			</g>
			<g>
				<polygon fill="#FFFFFF" points="56.32,69.166 56.32,69.707 47.126,78.899 47.126,78.358 				"/>
			</g>
			<g>
				<polygon fill="#FFFFFF" points="47.126,78.358 47.126,78.899 37.937,69.707 37.937,69.166 				"/>
			</g>
		</g>
		<g>
			<g>
				<polygon fill="#FFFFFF" points="62.038,63.671 62.038,64.212 59.038,67.205 59.038,66.665 				"/>
			</g>
			<g>
				<polygon fill="#FFFFFF" points="59.038,66.665 59.038,67.205 55.785,63.958 55.785,63.418 				"/>
			</g>
			<g>
				<polygon fill="#FFFFFF" points="70.902,66.683 70.902,67.224 67.917,64.225 67.917,63.685 				"/>
			</g>
			<g>
				<polygon fill="#FFFFFF" points="74.169,63.418 74.169,63.958 70.902,67.224 70.902,66.683 				"/>
			</g>
			<g enable-background="new    ">
				<defs>
					<path id="SVGID_18_" enable-background="new    " d="M67.918,82.755v0.539c0,2.4-0.303,8.092-11.335,8.092
						c-12.533,0-12.89-6.16-12.89-9.303v-0.541c0,3.143,0.356,9.305,12.89,9.305C67.615,90.847,67.918,85.153,67.918,82.755z"/>
				</defs>
				<use xlink:href="#SVGID_18_"  overflow="visible" fill="#FFFFFF"/>
				<clipPath id="SVGID_19_">
					<use xlink:href="#SVGID_18_"  overflow="visible"/>
				</clipPath>
				<g clip-path="url(#SVGID_19_)" enable-background="new    ">
					<path fill="#FFFFFF" d="M67.918,82.755v0.539c0,0.436-0.011,0.979-0.093,1.578v-0.541
						C67.907,83.733,67.918,83.19,67.918,82.755"/>
					<path fill="#FFFFFF" d="M67.825,84.331v0.541c-0.053,0.381-0.134,0.785-0.262,1.199V85.53
						C67.691,85.118,67.772,84.714,67.825,84.331"/>
					<path fill="#FFFFFF" d="M67.563,85.53v0.541c-0.114,0.367-0.264,0.744-0.462,1.115v-0.541
						C67.3,86.274,67.449,85.899,67.563,85.53"/>
					<path fill="#FFFFFF" d="M67.102,86.646v0.541c-1.149,2.156-3.906,4.199-10.519,4.199c-12.533,0-12.89-6.16-12.89-9.303v-0.541
						c0,3.143,0.356,9.305,12.89,9.305C63.195,90.847,65.952,88.802,67.102,86.646"/>
				</g>
			</g>
		</g>
	</g>
</g>
</svg>
