<?xml version="1.0" encoding="utf-8"?>
<!-- Generator: Adobe Illustrator 24.2.1, SVG Export Plug-In . SVG Version: 6.00 Build 0)  -->
<svg version="1.1" id="Layer_1" xmlns="http://www.w3.org/2000/svg" xmlns:xlink="http://www.w3.org/1999/xlink" x="0px" y="0px"
	 viewBox="0 0 2500 2500" enable-background="new 0 0 2500 2500" xml:space="preserve">
<g>
	<path fill="#F0543F" d="M1546.413,1850.601c-12.968,0-25.404-6.705-32.383-18.338l-285.535-476.172l-533.427,145.053
		c-17.019,4.645-34.956-3.138-43.238-18.707L28.271,309.419c-5.796-10.908-5.89-23.966-0.25-34.956
		c5.64-10.994,16.306-18.526,28.549-20.177l529.888-71.304c14.942-2.007,29.651,5.067,37.409,17.998l639.977,1067.255
		l743.291-202.123L1758.891,716.2c-7.266-10.244-8.962-23.425-4.53-35.173c4.432-11.747,14.418-20.525,26.641-23.409l347.778-82.138
		c14.188-3.359,29.024,1.765,38.142,13.14l300.944,375.742c7.946,9.929,10.363,23.196,6.423,35.291
		c-3.94,12.096-13.705,21.394-25.985,24.732l-317.033,86.213l276.401,389.599c6.865,9.675,8.782,22.008,5.186,33.305
		c-3.604,11.297-12.304,20.247-23.495,24.167l-830.479,290.806C1554.777,1849.913,1550.566,1850.601,1546.413,1850.601z
		 M1304.186,1335.508l258.775,431.546l754.121-264.067l-263.416-371.289L1304.186,1335.508z M120.399,321.879l583.947,1098.503
		l483.811-131.565L571.896,261.122L120.399,321.879z M1852.886,718.215l231.852,326.798l288.213-78.378L2122.905,654.44
		L1852.886,718.215z"/>
</g>
<g>
	<path fill="#6D6E6E" d="M564.412,1958.893h31.56v339.947h-31.56V1958.893z"/>
	<path fill="#6D6E6E" d="M905.934,2053.573v245.268h-31.109v-42.158c-13.225,16.084-28.066,28.182-44.522,36.297
		c-16.456,8.115-34.453,12.173-53.99,12.173c-34.716,0-64.359-12.586-88.931-37.763c-24.572-25.169-36.857-55.793-36.857-91.862
		c0-35.313,12.398-65.52,37.195-90.622c24.797-25.097,54.628-37.646,89.494-37.646c20.138,0,38.36,4.283,54.666,12.849
		c16.306,8.566,30.62,21.416,42.944,38.548v-45.085H905.934z M779.807,2077.693c-17.561,0-33.776,4.317-48.64,12.947
		c-14.863,8.634-26.683,20.758-35.46,36.369c-8.784,15.611-13.172,32.123-13.172,49.534c0,17.268,4.426,33.78,13.285,49.537
		c8.852,15.761,20.754,28.036,35.685,36.816c14.938,8.784,30.959,13.172,48.076,13.172c17.26,0,33.626-4.354,49.09-13.06
		c15.457-8.709,27.352-20.491,35.685-35.351c8.326-14.859,12.496-31.597,12.496-50.214c0-28.37-9.348-52.089-28.036-71.152
		C830.13,2087.229,807.129,2077.693,779.807,2077.693z"/>
	<path fill="#6D6E6E" d="M964.996,2053.573h32.236v35.843c9.618-14.123,19.762-24.684,30.433-31.672
		c10.67-6.988,21.791-10.482,33.363-10.482c8.716,0,18.034,2.784,27.953,8.341l-16.456,26.6c-6.613-2.852-12.173-4.283-16.682-4.283
		c-10.52,0-20.664,4.321-30.433,12.962c-9.769,8.645-17.208,22.058-22.317,40.239c-3.907,13.976-5.861,42.234-5.861,84.76v82.961
		h-32.236V2053.573z"/>
	<path fill="#6D6E6E" d="M1360.169,2053.573v245.268h-31.109v-42.158c-13.225,16.084-28.066,28.182-44.522,36.297
		c-16.456,8.115-34.453,12.173-53.99,12.173c-34.716,0-64.359-12.586-88.931-37.763c-24.572-25.169-36.857-55.793-36.857-91.862
		c0-35.313,12.398-65.52,37.195-90.622c24.797-25.097,54.628-37.646,89.494-37.646c20.138,0,38.36,4.283,54.666,12.849
		c16.306,8.566,30.62,21.416,42.944,38.548v-45.085H1360.169z M1234.042,2077.693c-17.561,0-33.776,4.317-48.64,12.947
		c-14.863,8.634-26.683,20.758-35.46,36.369c-8.784,15.611-13.172,32.123-13.172,49.534c0,17.268,4.426,33.78,13.285,49.537
		c8.852,15.761,20.754,28.036,35.685,36.816c14.938,8.784,30.959,13.172,48.076,13.172c17.26,0,33.626-4.354,49.09-13.06
		c15.457-8.709,27.352-20.491,35.685-35.351c8.326-14.859,12.496-31.597,12.496-50.214c0-28.37-9.348-52.089-28.036-71.152
		C1284.365,2087.229,1261.364,2077.693,1234.042,2077.693z"/>
	<path fill="#6D6E6E" d="M1407.959,2053.573h33.589l82.326,178.786l81.334-178.786h33.814l-112.263,245.268h-5.861
		L1407.959,2053.573z"/>
	<path fill="#6D6E6E" d="M1893.529,2217.458l26.6,13.977c-8.724,17.132-18.801,30.962-30.237,41.479
		c-11.429,10.524-24.293,18.526-38.578,24.012c-14.3,5.485-30.47,8.228-48.519,8.228c-40.013,0-71.295-13.112-93.86-39.341
		c-22.565-26.225-33.844-55.868-33.844-88.931c0-31.109,9.551-58.836,28.652-83.183c24.218-30.958,56.635-46.438,97.249-46.438
		c41.817,0,75.21,15.859,100.18,47.565c17.749,22.396,26.773,50.349,27.074,83.859h-220.693
		c0.601,28.487,9.701,51.841,27.307,70.059s39.352,27.325,65.231,27.325c12.489,0,24.632-2.172,36.452-6.511
		c11.805-4.339,21.851-10.106,30.125-17.294C1874.946,2245.08,1883.896,2233.479,1893.529,2217.458z M1893.529,2151.408
		c-4.215-16.828-10.347-30.282-18.395-40.351c-8.055-10.065-18.695-18.181-31.935-24.346c-13.248-6.162-27.164-9.242-41.757-9.242
		c-24.076,0-44.77,7.743-62.068,23.219c-12.646,11.271-22.197,28.178-28.667,50.721H1893.529z"/>
	<path fill="#6D6E6E" d="M1982.347,1958.893h31.56v339.947h-31.56V1958.893z"/>
</g>
</svg>
