<?xml version="1.0" encoding="utf-8"?>
<!-- Generator: Adobe Illustrator 24.2.1, SVG Export Plug-In . SVG Version: 6.00 Build 0)  -->
<svg version="1.1" id="Layer_1" xmlns="http://www.w3.org/2000/svg" xmlns:xlink="http://www.w3.org/1999/xlink" x="0px" y="0px"
	 viewBox="0 0 512 512" style="enable-background:new 0 0 512 512;" xml:space="preserve">
<style type="text/css">
	.st0{fill:url(#SVGID_1_);}
	.st1{fill:url(#SVGID_2_);}
	.st2{fill:url(#SVGID_3_);}
	.st3{fill:#C1BFBE;}
	.st4{fill:#494849;}
</style>
<g>
	
		<linearGradient id="SVGID_1_" gradientUnits="userSpaceOnUse" x1="-196.7344" y1="-643.0823" x2="-239.2733" y2="-643.3728" gradientTransform="matrix(-0.9771 -0.323 0.2901 -0.8773 17.3894 -372.5973)">
		<stop  offset="0.2308" style="stop-color:#9B9A75"/>
		<stop  offset="0.5632" style="stop-color:#9C9B77"/>
		<stop  offset="0.6829" style="stop-color:#A2A17E"/>
		<stop  offset="0.7683" style="stop-color:#ABAA89"/>
		<stop  offset="0.8373" style="stop-color:#B8B79A"/>
		<stop  offset="0.8964" style="stop-color:#CAC8B0"/>
		<stop  offset="0.9482" style="stop-color:#DFDDCB"/>
		<stop  offset="0.9944" style="stop-color:#F8F6EB"/>
		<stop  offset="1" style="stop-color:#FBF9EF"/>
	</linearGradient>
	<path class="st0" d="M46.93,321.04l-3.61-1.2c0,0,0.46-18.26-6.13-19.54c-4.34-5.03,0.67-214.97,16.45-0.72c0,0-5.4,2.71-6.42,7.32
		C46.2,311.51,46.93,321.04,46.93,321.04z"/>
	
		<linearGradient id="SVGID_2_" gradientUnits="userSpaceOnUse" x1="-190.1831" y1="-568.6346" x2="-251.3805" y2="-674.6315" gradientTransform="matrix(-0.9771 -0.323 0.2901 -0.8773 17.3894 -372.5973)">
		<stop  offset="0" style="stop-color:#599E4C"/>
		<stop  offset="1" style="stop-color:#498E41"/>
	</linearGradient>
	<path class="st1" d="M48.88,303.41c0,0,31.36-20.65,24.01-63.54c-7.07-31.16-23.78-41.4-25.57-45.32
		c-1.98-2.77-3.97-7.67-3.97-7.67l1.33,86.82C44.68,273.7,41.92,300.21,48.88,303.41z"/>
	
		<linearGradient id="SVGID_3_" gradientUnits="userSpaceOnUse" x1="-184.5772" y1="-644.8318" x2="-227.9554" y2="-615.6947" gradientTransform="matrix(-0.9771 -0.323 0.2901 -0.8773 17.3894 -372.5973)">
		<stop  offset="0" style="stop-color:#4FA346"/>
		<stop  offset="0.2402" style="stop-color:#59A84F"/>
		<stop  offset="0.6511" style="stop-color:#75B667"/>
		<stop  offset="1" style="stop-color:#91C47F"/>
	</linearGradient>
	<path class="st2" d="M41.49,304.56c0,0-29.41-20.06-27.72-55.47c1.69-35.4,22.47-52.81,26.51-55.97c2.62-2.79,2.72-3.86,2.93-6.61
		c1.83,3.94,1.53,58.83,1.72,65.24C45.68,276.73,43.54,299.85,41.49,304.56z"/>
	<path class="st3" d="M377.29,239.65c1.68,0,8.09,0.29,11.07,0.29c5.55,0,9.42-0.29,19.83-0.29c8.73,0,16.07,2.35,21.32,6.85
		c6.35,5.48,9.72,13.12,9.72,22.43c0,13.22-6.05,20.86-12.1,25.17c-6.05,4.5-13.88,7.05-25.09,7.05c-5.95,0-16.17-0.2-24.69-0.29
		h-0.12c-0.4-0.78,0.73-3.84,1.43-3.92c2.3-0.26,2.93-0.35,4-0.79c1.8-0.74,2.23-1.66,2.42-4.89c0.3-6.07,0.2-13.32,0.2-21.54
		c0-5.88,0.1-17.33-0.1-20.96c-0.3-3.04-1.58-3.82-4.16-4.41c-1.29-0.29-3.07-0.59-5.55-0.88
		C375.27,242.88,376.79,240.23,377.29,239.65z M397.08,294.1c2.08,1.67,6.25,2.35,9.92,2.35c4.76,0,9.42-0.88,13.98-4.99
		c4.66-4.21,7.83-10.68,7.83-20.96c0-9.89-3.77-17.92-11.5-22.62c-4.36-2.74-10.02-3.82-16.46-3.82c-1.88,0-3.77,0.1-4.86,0.59
		c-0.3,0.2-0.89,0.98-0.89,1.37c-0.2,1.76-0.2,15.18-0.2,23.11c0,8.13,0,19.49,0.2,20.86C395.2,291.16,395.79,293.21,397.08,294.1z"
		/>
	<path class="st3" d="M447.57,239.65c0.89,0,3.53,0.29,10.27,0.29c6.35,0,11.5-0.2,17.65-0.2c7.64,0,18.15,2.74,18.15,14.1
		c0,5.58-3.97,10.09-9.12,12.24c-0.3,0.1-0.3,0.29,0,0.39c7.34,1.86,13.78,6.37,13.78,14.98c0,8.42-5.25,13.71-12.89,17.04
		c-4.66,2.06-10.41,2.74-16.26,2.74c-4.46,0-16.42-0.49-23.06-0.39c-0.7-0.29,0.64-3.43,1.23-3.92c1.59-0.1,2.81-0.21,4.5-0.7
		c2.38-0.59,2.66-1.35,2.96-4.88c0.2-3.03,0.2-13.91,0.2-21.64c0-10.58,0.1-17.72,0-21.25c-0.1-2.74-1.09-3.62-2.98-4.11
		c-1.49-0.29-3.96-0.59-5.95-0.88C445.55,242.98,447.08,240.04,447.57,239.65z M487.99,283.62c0-8.62-6.35-13.51-17.95-13.51
		c-0.49,0-4.17-0.1-5.06,0.1c-0.3,0.1-0.59,0.29-0.59,0.49c0,6.17-0.1,16.06,0.2,19.98c0.2,1.67,1.39,4.02,2.88,4.7
		c1.59,0.88,5.16,1.08,7.64,1.08C481.94,296.45,487.99,292.63,487.99,283.62z M465.48,244.45c-0.4,0.1-0.89,1.08-0.89,1.57
		c-0.1,3.52-0.2,12.73-0.2,19.09c0,0.2,0.3,0.49,0.5,0.49c1.29,0.1,4.46,0.2,7.14,0.2c3.77,0,5.95-0.49,7.14-1.08
		c3.17-1.57,4.66-4.99,4.66-8.71c0-8.52-5.95-11.75-14.77-11.75C468.46,244.25,466.77,244.25,465.48,244.45z"/>
	<path class="st4" d="M92.83,301.1c-0.17-0.26-0.34-1.04-0.3-1.98c0.03-0.71,0.17-1.16,0.3-1.32c1.87-0.29,2.76-0.49,3.81-0.78
		c1.75-0.44,2.41-1.38,2.52-3.62c0.29-5.28,0.3-15.19,0.2-22.15l0-0.21c0.01-0.75,0.02-1.77-0.92-2.49
		c-1.38-0.91-3.09-1.66-5.26-2.31c-0.83-0.25-1.29-0.68-1.26-1.19c0.03-0.49,0.55-1.11,1.63-1.32c2.87-0.3,10.4-2.09,13.35-3.45
		c0.17,0.21,0.45,0.67,0.4,1.41c-0.02,0.31-0.05,0.63-0.08,0.97c-0.08,0.98-0.18,2.1-0.18,3.21c0,0.33,0.36,0.64,0.73,0.64
		c0.19,0,0.37-0.07,0.51-0.22c5.63-4.41,10.67-5.98,13.26-5.98c4.26,0,7.57,2.03,10.14,6.21c0.15,0.22,0.35,0.34,0.58,0.34
		c0.21,0,0.42-0.11,0.54-0.29c5.18-3.92,10.31-6.26,13.74-6.26c8.12,0,12.97,6.07,12.97,16.23c0,2.92-0.03,6.62-0.06,10.08
		c-0.02,3.03-0.05,5.87-0.05,7.84c0,0.48,0.64,1.8,1.6,2.06c1.19,0.58,2.9,0.87,5.07,1.25l0.08,0.01c0.16,0.58-0.18,2.85-0.51,3.31
		c-0.54,0-1.28-0.04-2.21-0.09c-1.69-0.09-4-0.2-6.68-0.2c-5.39,0-8.21,0.11-10.9,0.28c-0.2-0.67-0.27-2.84-0.03-3.29
		c1.57-0.29,2.35-0.49,3.29-0.77c1.72-0.57,2.21-1.34,2.31-3.62c0.04-1.62,0.35-15.87-0.2-19.26c-0.51-3.51-3.16-7.61-8.94-7.61
		c-2.15,0-5.62,0.89-8.92,3.4c-0.21,0.2-0.32,0.59-0.32,0.84l0.01,0.07c0.39,1.83,0.39,3.96,0.39,7.18c0,1.84-0.01,3.79-0.02,5.72
		c-0.02,3.93-0.04,7.64,0.02,10.44c0,1.91,1.16,2.37,2.09,2.74c0.51,0.11,0.91,0.21,1.31,0.3c0.78,0.19,1.59,0.38,2.78,0.57
		c0.16,0.38,0.18,1.5-0.05,2.46c-0.13,0.53-0.27,0.77-0.34,0.84c-3-0.1-6.08-0.19-10.52-0.19c-1.35,0-3.54,0.06-5.48,0.11
		c-1.57,0.04-3.06,0.08-3.91,0.09c-0.12-0.19-0.29-0.81-0.29-1.71c0-0.83,0.15-1.42,0.31-1.6c0.42-0.08,0.81-0.15,1.19-0.21
		c1.04-0.19,1.94-0.34,2.8-0.56c1.47-0.45,2.02-1.26,2.13-3.13c0.29-4.36,0.51-16.91-0.11-20.06c-1.05-5.05-3.93-7.6-8.55-7.6
		c-2.71,0-6.13,1.3-8.92,3.39c-0.47,0.35-0.82,1.21-0.82,2.02c0,1.49,0,3.28-0.01,5.18c-0.02,6.31-0.04,14.15,0.11,17.55
		c0.09,1.04,0.46,2.29,2.43,2.74c0.43,0.12,1.17,0.24,2.04,0.39c0.5,0.08,1.04,0.17,1.6,0.27c0.2,0.54,0.08,2.66-0.27,3.31
		c-0.86-0.01-1.92-0.05-3.14-0.11c-1.86-0.08-4.17-0.19-6.8-0.19c-3.1,0-5.26,0.1-6.99,0.19C94.84,301.05,93.83,301.1,92.83,301.1
		L92.83,301.1z"/>
	<path class="st4" d="M192.79,301.98c-14.9,0-20.21-10.92-20.21-21.13c0-7.13,2.92-12.71,8.68-16.58c4.1-2.52,8.99-3.96,13.4-3.96
		c11.37,0,19.31,8.17,19.31,19.86c0,7.95-3.17,14.22-9.18,18.14C201.93,300.08,196.94,301.98,192.79,301.98L192.79,301.98z
		 M191.2,264.48c-1.81,0-3.49,0.47-4.74,1.33c-3.44,2.09-5.2,6.27-5.2,12.4c0,11.49,5.76,19.51,14,19.51c2.43,0,4.42-0.7,6.06-2.14
		c2.53-2.06,3.88-6.28,3.88-12.19C205.21,272.08,199.58,264.48,191.2,264.48L191.2,264.48z"/>
	<path class="st4" d="M347.06,301.98c-14.9,0-20.21-10.91-20.21-21.13c0-7.14,2.92-12.72,8.69-16.58c4.1-2.51,8.99-3.96,13.4-3.96
		c11.37,0,19.31,8.17,19.31,19.86c0,7.95-3.17,14.23-9.18,18.14C356.21,300.08,351.21,301.98,347.06,301.98L347.06,301.98z
		 M345.48,264.48c-1.81,0-3.49,0.47-4.75,1.33c-3.44,2.09-5.19,6.27-5.19,12.4c0,11.49,5.76,19.51,14,19.51
		c2.43,0,4.42-0.7,6.06-2.14c2.53-2.06,3.88-6.28,3.88-12.18C359.48,272.08,353.85,264.48,345.48,264.48L345.48,264.48z"/>
	<path class="st4" d="M295.62,325.49c-5.35,0-9.2-1.13-12.49-3.66c-3.2-2.47-4.64-6.13-4.64-8.66c0-0.73,0.17-2.61,1.75-4.4
		c0.93-1.06,3.09-3.04,8.08-6.46c0.15-0.06,0.26-0.21,0.26-0.39c0-0.2-0.13-0.37-0.31-0.41c-4.11-1.57-5.35-4.15-5.72-5.55
		c-0.01-0.05-0.02-0.13-0.04-0.22c-0.12-0.55-0.23-1.07,0.51-1.6c0.58-0.41,1.5-0.96,2.48-1.53c1.45-0.85,3.08-1.82,3.99-2.59
		c0.14-0.14,0.2-0.35,0.17-0.55c-0.03-0.21-0.15-0.38-0.33-0.47c-6.08-2.04-9.14-6.55-9.14-13.43c0-4.44,2.05-8.45,5.62-11
		c2.45-1.93,8.59-4.25,12.56-4.25l0.23,0c4.09,0.1,6.4,0.95,9.59,2.13c1.73,0.64,3.37,0.9,5.67,0.9c3.39,0,4.87-1.07,6.14-2.3
		c0.07,0.15,0.25,0.64,0.32,1.75c0.08,1.14-0.23,2.82-1.1,4.02c-0.69,0.96-2.3,1.65-3.81,1.65c-0.15,0-0.3-0.01-0.44-0.02
		c-1.56-0.15-2.29-0.38-2.3-0.38l-0.38,0.13c-0.12,0.18-0.04,0.37,0.06,0.62c0.02,0.06,0.05,0.12,0.06,0.15
		c0.2,0.79,0.55,3.11,0.55,3.76c0,7.21-2.85,10.35-5.92,12.67c-2.94,2.21-6.37,3.54-10.23,3.95h0c-0.08,0-0.45,0.03-1.18,0.1
		c-0.48,0.04-1.07,0.1-1.16,0.1l-0.09,0.01c-0.67,0.19-2.42,1.02-2.42,2.56c0,1.28,0.79,2.87,4.56,3.16
		c0.76,0.06,1.58,0.11,2.44,0.17c4.98,0.35,11.19,0.78,14.12,1.77c4.02,1.46,6.53,5.06,6.53,9.4c0,6.47-4.6,12.55-12.31,16.26
		C303.53,324.63,299.73,325.49,295.62,325.49L295.62,325.49z M295.03,302.77c-1.72,0-2.98,0.5-3.73,0.92
		c-3.63,2.33-5.32,4.65-5.32,7.33c0,2.52,0.98,4.53,3.09,6.31c2.55,2.16,5.99,3.21,10.52,3.21c8.9,0,12.9-4.78,12.9-9.52
		c0-3.3-1.66-5.51-5.07-6.76C304.79,303.3,300.4,302.77,295.03,302.77L295.03,302.77z M295.62,264.09c-4.59,0-7.56,3.62-7.56,9.23
		c0,5.66,2.55,12.26,9.74,12.26c1.23,0,3.47-0.55,4.58-1.77c1.67-1.53,2.76-4.7,2.76-8.05
		C305.15,268.45,301.59,264.09,295.62,264.09L295.62,264.09z"/>
	<g>
		<g>
			<path class="st4" d="M271.42,297.5c-2.18-0.29-3.77-0.59-5.65-1.47c-0.3-0.2-0.7-1.08-0.7-1.37c-0.2-3.04-0.2-11.85-0.2-17.63
				c0-4.7-0.79-8.81-2.78-11.75c-2.38-3.33-5.75-5.29-10.11-5.29c-3.87,0-9.02,2.64-13.29,6.27c-0.1,0.1-0.75,0.72-0.74-0.25
				c0.02-0.96,0.16-2.92,0.25-4.16c0.09-1.23-0.65-1.82-0.65-1.82c-2.78,1.37-10.6,3.23-13.49,3.53c-2.11,0.41-2.74,2.43-0.4,3.13
				l0,0c0.01,0,0.02,0.01,0.04,0.01c2.35,0.71,3.94,1.46,5.12,2.24c0.89,0.69,0.79,1.67,0.79,2.45c0.1,6.56,0.1,16.65-0.2,22.13
				c-0.1,2.15-0.69,2.94-2.28,3.33l0.15-0.05c-1.19,0.29-2.18,0.49-3.67,0.69c-0.5,0.49-0.5,3.33,0,3.92c0.99,0,6.05-0.3,10.21-0.3
				c5.75,0,8.73,0.3,10.21,0.3c0.6-0.69,0.79-3.33,0.4-3.92c-1.69-0.1-2.88-0.29-4.07-0.59c-1.59-0.39-1.98-1.18-2.08-2.94
				c-0.2-4.6-0.2-14.39-0.2-21.05c0-1.86,0.5-2.74,1.09-3.23c1.98-1.76,5.25-2.94,8.13-2.94c2.78,0,4.66,0.88,6.05,2.06
				c1.88,1.57,2.58,3.82,2.78,5.48c0.4,3.72,0.3,11.16,0.3,17.63c0,3.53-0.3,4.41-1.59,4.8c-0.6,0.29-2.18,0.59-4.07,0.78
				c-0.59,0.59-0.4,3.33,0,3.92c2.58,0,5.55-0.3,9.92-0.3c5.45,0,8.92,0.3,10.31,0.3C271.61,300.73,271.81,298.19,271.42,297.5z"/>
		</g>
	</g>
</g>
</svg>
