<?xml version="1.0" encoding="utf-8"?>
<!-- Generator: Adobe Illustrator 24.2.1, SVG Export Plug-In . SVG Version: 6.00 Build 0)  -->
<svg version="1.1" id="layer" xmlns="http://www.w3.org/2000/svg" xmlns:xlink="http://www.w3.org/1999/xlink" x="0px" y="0px"
	 viewBox="0 0 652 237" style="enable-background:new 0 0 652 237;" xml:space="preserve">
<style type="text/css">
	.st0{fill:#3880FF;}
</style>
<g>
	<g id="icon">
		<path id="Shape" class="st0" d="M114,70.6c-27.4,0-49.6,22.5-49.6,50.3s22.2,50.3,49.6,50.3s49.6-22.5,49.6-50.3
			C163.5,93,141.3,70.6,114,70.6z"/>
		<ellipse id="Oval" class="st0" cx="185" cy="52.1" rx="22.6" ry="23"/>
		<path id="Shape_1_" class="st0" d="M212.8,75l-0.9-2.1l-1.5,1.8c-3.6,4.2-8.5,7.5-13.6,9.5l-1.5,0.7l0.6,1.5
			c4.6,11,6.8,22.6,6.8,34.5c0,49.6-39.8,90.1-88.8,90.1s-88.7-40.5-88.7-90.1S65,30.8,114,30.8c13.3,0,26,3,38,8.7l1.3,0.7l0.6-1.5
			c2.3-5.2,5.6-9.8,10.1-13.4l1.8-1.5l-2-1.1c-15.6-8.1-32.2-12.3-49.8-12.3C54.1,10.4,5.3,59.9,5.3,120.6S54.1,230.8,114,230.8
			s108.7-49.5,108.7-110.2C222.6,104.8,219.3,89.6,212.8,75z"/>
	</g>
	<g id="logotype" transform="translate(40.000000, 8.000000)">
		<rect id="Rectangle-path" x="238.6" y="64.7" class="st0" width="23" height="96"/>
		<rect id="Rectangle-path_1_" x="485.9" y="64.7" class="st0" width="23" height="96"/>
		<path id="Shape_2_" class="st0" d="M432.9,62.6c-16.1,0-28.5,9.9-31.3,12.6l-1.5-10.3H381v96h23v-58c0-11.4,15.2-20.7,26.5-20.7
			c10.9,0,19.5,10.8,19.5,23.7v55.1h23v-52.8C472.7,82.8,462,62.6,432.9,62.6z"/>
		<path id="Shape_3_" class="st0" d="M568.9,143.3c-17.3,0-28.6-13.6-28.6-30.6s11.4-30.6,28.6-30.6c14.6,0,23.6,14.4,23.6,14.4
			L609,85.3c-4.7-7.5-10.3-12-17.9-16.6c-5.6-3.5-13.2-6.3-21.6-6.3c-28.6,0-50.5,21.9-50.8,50.3c0.1,28.3,22,50.3,50.8,50.3
			c8.5,0,16-2.8,21.6-6.3c7.5-4.7,13.2-9.1,17.9-16.6l-16.5-11.2C592.5,128.8,583.6,143.3,568.9,143.3z"/>
		<path id="path3000_1_" class="st0" d="M321.2,62.6c-28.9,0-49.6,23-49.6,49.7c0,27.3,20.1,50.7,50,50.7c27,0,49-21,49-50
			C370.7,79.6,345,62.6,321.2,62.6z M321.5,82.4c14.2,0,27.7,11.6,27.7,30.6c0,18.4-13.4,30.5-27.8,30.5
			c-15.7,0-28.1-12.8-28.1-30.6C293.3,95.2,305.6,82.4,321.5,82.4z"/>
	</g>
</g>
</svg>
