<?xml version="1.0" encoding="utf-8"?>
<!-- Generator: Adobe Illustrator 24.2.1, SVG Export Plug-In . SVG Version: 6.00 Build 0)  -->
<svg version="1.1" id="Layer_2" xmlns="http://www.w3.org/2000/svg" xmlns:xlink="http://www.w3.org/1999/xlink" x="0px" y="0px"
	 viewBox="0 0 600 600" enable-background="new 0 0 600 600" xml:space="preserve">
<g>
	<g>
		<defs>
			<polyline id="SVGID_1_" points="565.834,41.416 34.167,41.416 34.167,558.583 565.834,558.583 565.834,41.416 			"/>
		</defs>
		<clipPath id="SVGID_2_">
			<use xlink:href="#SVGID_1_"  overflow="visible"/>
		</clipPath>
		<g clip-path="url(#SVGID_2_)">
			
				<image overflow="visible" width="963" height="865" xlink:href="8AD992B4.jpg"  transform="matrix(0.48 0 0 -0.48 33.6201 559.2197)">
			</image>
		</g>
		<g transform="matrix(1 0 0 1 -3.051758e-05 0)" clip-path="url(#SVGID_2_)">
			
				<image overflow="visible" width="150" height="1080" xlink:href="8AD992B5.jpg"  transform="matrix(0.48 0 0 -0.48 494.4199 559.2197)">
			</image>
		</g>
		<g clip-path="url(#SVGID_2_)">
			
				<image overflow="visible" width="963" height="218" xlink:href="8AD992B3.jpg"  transform="matrix(0.48 0 0 -0.48 33.6201 145.46)">
			</image>
		</g>
	</g>
	<path fill="#E579FF" d="M34.167,41.416h531.667v517.167H34.167V41.416z M10,582.75h580V17.25H10V582.75z M358,256.016
		c0-2.9,0-9.908-1.208-23.442c0-1.934,0.241-2.416,1.935-3.141c14.741-6.042,49.301-16.676,88.45-16.676
		c1.933,0,2.897,0.483,2.897,2.417v35.042c0,1.934-0.726,2.417-2.657,2.417c-15.226-0.725-37.217,1.208-45.677,4.833v152.25
		c0,1.934-0.725,2.9-2.898,2.9h-37.94c-1.934,0-2.901-0.728-2.901-2.9v-153.7H358z M203.334,278.009
		c5.559,0.483,9.908,0.483,19.575,0.483c28.275,0,54.859-9.908,54.859-48.333c0-30.691-18.852-46.159-51.235-46.159
		c-9.667,0-18.849,0.483-23.199,0.725V278.009z M160.56,149.683c0-1.691,0.482-2.9,2.416-2.9
		c15.467-0.725,38.183-1.208,62.108-1.208c66.941,0,96.184,36.733,96.184,83.859c0,61.382-44.467,87.725-99.082,87.725
		c-9.185,0-12.325-0.483-18.852-0.483v92.801c0,1.936-0.725,2.899-2.899,2.899h-37.218c-1.933,0-2.899-0.726-2.899-2.899V149.683
		H160.56z"/>
</g>
</svg>
