<?xml version="1.0" encoding="utf-8"?>
<!-- Generator: Adobe Illustrator 24.2.1, SVG Export Plug-In . SVG Version: 6.00 Build 0)  -->
<svg version="1.1" id="Capa_1" xmlns="http://www.w3.org/2000/svg" xmlns:xlink="http://www.w3.org/1999/xlink" x="0px" y="0px"
	 viewBox="0 0 427 200" enable-background="new 0 0 427 200" xml:space="preserve">
<g>
	<path fill="#208DD5" d="M4.489,101.518c0-29.429,0.047-58.86-0.045-88.287c-0.016-5.11,0.381-6.738,2.428-6.715
		C27.041,6.743,47.21,6.737,67.379,6.523c2.006-0.021,2.491,1.441,2.485,6.677c-0.068,58.858-0.064,117.717-0.005,176.575
		c0.005,4.867-0.462,6.351-2.336,6.334c-20.257-0.177-40.514-0.183-60.771,0.008c-1.894,0.018-2.317-1.467-2.304-6.313
		C4.531,160.378,4.489,130.947,4.489,101.518z M26.691,93.617c0,11.53,0.055,23.062-0.029,34.587
		c-0.031,4.167,0.595,5.179,2.025,5.19c1.438,0.011,2.085-1.051,2.031-5.194c-0.093-7.05,0.067-14.127-0.057-21.17
		c-0.081-4.583,0.466-6.214,2.217-6.031c2.811,0.294,5.649,0.501,8.442-0.205c5.027-1.27,7.736-10.7,7.482-25.014
		c-0.231-13.022-3.13-20.877-8.063-21.246c-4.046-0.302-8.099,0.069-12.146-0.168c-1.543-0.09-1.949,1.508-1.925,5.368
		C26.737,71.026,26.692,82.322,26.691,93.617z M51.803,179.065c0.332,1.385,0.476,1.963,0.612,2.554
		c1.118,4.871,2.848,5.101,4.65,4.068c1.15-0.659,1.805-3.045,1.812-6.164c0.015-5.906-1.882-5.933-3.32-7.236
		c-0.657-0.595-1.478-0.604-1.464-3.174c0.004-0.814,0.192-2.023,0.43-2.35c0.759-1.044,1.505-0.684,2.204,0.754
		c0.459,0.945,0.853,4.227,1.55,1.487c0.466-1.832-0.185-4.025-0.922-5.18c-0.608-0.953-1.457-2.336-1.974-1.3
		c-2.412,4.828-4.523,2.801-7.096,0.279c-1.943-1.904-3.612,3.11-3.974,8.834c-0.356,5.618,0.031,11.348,2.26,13.656
		C48.748,187.549,50.77,186.396,51.803,179.065z M65.797,170.13c0.298-5.277-0.922-7.154-2.5-7.635
		c-1.53-0.466-2.843,1.042-3.227,5.494c-0.436,5.055,0.899,6.523,2.363,7.519c0.426,0.29,0.855,0.552,1.277,0.871
		c0.634,0.477,1.209,1.33,1.112,3.329c-0.118,2.433-0.909,2.31-1.608,2.697c-1.37,0.759-1.942-3.222-3.021-3.978
		c-0.542,2.624-0.047,4.188,0.434,5.466c1.236,3.285,2.774,2.602,4.206,1.454c0.981-0.787,1.554-3.104,1.518-6.009
		c-0.057-4.482-1.25-5.749-2.642-6.432c-0.429-0.21-0.838-0.697-1.257-1.054c-0.665-0.565-1.11-1.704-0.918-3.625
		c0.198-1.982,0.892-1.825,1.511-2.039C64.304,165.752,64.474,170.338,65.797,170.13z"/>
	<path fill="#282526" d="M82.865,101.272c0-29.409,0.056-58.819-0.051-88.225c-0.02-5.385,0.534-6.598,2.49-6.546
		c10.296,0.277,20.594,0.075,30.892,0.144c11.413,0.077,19.15,20.635,19.47,51.154c0.215,20.46-2.017,37.638-8.817,48.778
		c-3.766,6.169-8.003,8.284-12.388,8.297c-7.393,0.023-14.787,0.187-22.178-0.11c-2.029-0.082-2.673,1.289-2.64,6.966
		c0.13,22.58,0.006,45.171,0.092,67.754c0.018,4.859-0.206,6.967-2.363,6.714c-4.499-0.529-4.506-0.118-4.506-12.348
		C82.865,156.325,82.865,128.799,82.865,101.272z M89.691,59.938c0,11.299,0.026,22.598-0.016,33.896
		c-0.012,3.202,0.061,5.318,1.637,5.256c8.274-0.329,16.551-0.257,24.825-0.663c3.27-0.16,6.227-3.621,8.6-9.511
		c4.995-12.399,4.925-28.292,3.199-43.858c-1.666-15.026-6.421-21.828-11.925-22.541c-8.171-1.06-16.372-0.41-24.56-0.662
		c-1.402-0.043-1.81,1.257-1.786,4.894C89.737,37.809,89.691,48.875,89.691,59.938z"/>
	<path fill="#282526" d="M248.702,132.207c-5.812,0-11.626,0.162-17.437-0.098c-1.756-0.079-2.254,1.253-2.058,5.961
		c0.738,17.663,3.027,32.749,9.067,42.265c8.026,12.647,18.501,4.018,22.359-18.52c0.22-1.283,0.378-2.665,0.656-3.847
		c0.542-2.307,0.217-6.48,1.409-7.034c1.625-0.756,3.363-0.79,4.992-0.105c1.171,0.492,0.439,3.357,0.25,5.125
		c-3.394,31.706-12.085,47.091-24.506,43.546c-9.693-2.767-16.089-16.48-18.916-41.37c-2.815-24.786-2.531-49.364,1.936-72.699
		c4.308-22.504,13.08-33.821,22.517-30.096c10.858,4.286,17.884,24.94,19.285,56.778c0.216,4.902,0.267,9.856,0.501,14.751
		c0.217,4.542-0.518,5.493-2.089,5.434C260.68,132.074,254.69,132.207,248.702,132.207z M245.584,117.684c4.13,0,8.26,0,12.39,0
		c4.968,0,4.968,0,3.746-13.093c-2.45-26.242-11.406-41.6-20.236-33.956c-7.336,6.35-10.513,22.012-11.999,41.024
		c-0.365,4.67,0.004,6.238,1.865,6.122C236.092,117.488,240.839,117.684,245.584,117.684z"/>
	<path fill="#282526" d="M178.455,174.015c-4.355,17.052-10.253,25.298-17.7,25.74c-11.271,0.669-17.812-15.982-18.251-46.067
		c-0.055-3.761-0.059-7.529-0.059-11.293c-0.005-24.945,0.1-49.894-0.068-74.831c-0.047-7.003,0.542-9.181,3.279-9.019
		c2.521,0.149,3.228,1.789,3.187,8.623c-0.158,26.114-0.077,52.24-0.057,78.361c0.008,9.985,0.365,19.914,2.657,28.251
		c4.265,15.514,15.083,16.343,20.587,2.026c4.512-11.738,5.681-26.818,5.826-42.539c0.208-22.578,0.204-45.188-0.004-67.765
		c-0.071-7.749,1.49-6.724,3.256-6.701c1.753,0.022,3.309-1.1,3.279,6.682c-0.156,41.413-0.16,82.835,0.001,124.248
		c0.032,8.12-1.71,5.963-3.325,6.41c-1.968,0.545-2.893-0.839-2.65-6.738C178.621,184.331,178.455,179.149,178.455,174.015z"/>
	<path fill="#ADACAD" d="M353.613,54.443c7.849-0.078,14.029,4.274,18.193,20.602c1.202,4.715,2.072,9.894,2.152,15.69
		c0.034,2.461,0.638,6.45-1.111,6.333c-1.461-0.097-3.562,2.771-4.007-4.32c-0.554-8.837-2.289-15.538-4.995-20.701
		c-4.056-7.737-13.716-8.616-17.701-1.06c-3.086,5.85-4.694,14.186-4.26,24.325c0.42,9.796,2.925,15.093,6.339,17.685
		c6.162,4.678,12.511,7.446,18.556,13.349c5.635,5.503,8.96,16.078,9.257,30.129c0.328,15.508-2.582,29.986-7.956,35.751
		c-9.565,10.261-19.106,10.634-27.792-6.227c-3.835-7.444-5.04-19.383-5.339-31.755c-0.095-3.932,0.855-5.07,2.035-4.483
		c1.104,0.548,3.031-2.628,3.131,3.294c0.51,30.127,10.032,34.68,17.986,34.151c3.899-0.259,7.557-3.517,10.337-11.943
		c3.985-12.079,2.964-27.733-2.408-35.257c-2.844-3.983-5.957-5.571-9.025-7.648c-4.083-2.763-8.249-5.017-12.182-8.915
		c-8.319-8.246-10.685-35.238-4.909-53.432C343.767,57.877,348.809,53.877,353.613,54.443z"/>
	<path fill="#ADACAD" d="M399.833,54.466c7.514-0.103,13.43,4.244,17.536,19.502c1.406,5.224,2.333,11.051,2.562,17.533
		c0.101,2.867,0.207,6.377-1.43,5.602c-1.308-0.619-3.19,3.226-3.811-3.82c-2.316-26.272-15.772-37.41-23.75-19.881
		c-4.32,9.491-5.102,32.517,2.19,38.552c4.357,3.605,8.841,6.1,13.261,9.172c4.338,3.015,8.822,5.774,12.039,14.728
		c5.781,16.091,4.405,43.931-3.135,54.41c-9.325,12.959-19.01,12.568-28.153-2.227c-4.517-7.31-5.859-19.908-6.21-33.317
		c-0.094-3.605,0.538-5.442,1.868-5.002c1.232,0.408,3.17-2.112,3.262,4.064c0.436,29.225,10.561,34.834,18.723,33.249
		c3.673-0.713,6.992-4.309,9.577-11.849c3.964-11.563,2.989-27.594-2.236-34.845c-2.905-4.032-6.081-6.056-9.263-8.009
		c-4.273-2.624-8.593-4.892-12.671-9.385c-4.025-4.434-6.738-11.912-7.226-23.912c-0.605-14.854,0.933-27.476,5.693-36.386
		C392.286,55.859,396.382,53.921,399.833,54.466z"/>
	<path fill="#ADACAD" d="M284.077,127.702c-0.163-21.093,1.809-38.934,6.771-53.974c3.313-10.041,7.494-16.244,12.421-18.243
		c7.295-2.96,14.244-0.843,20.15,12.419c3.137,7.045,4.986,16.216,5.829,26.948c0.23,2.925-0.057,3.781-1.106,3.897
		c-2.172,0.24-3.85,0.533-4.619-7.466c-1.311-13.639-7.653-24.667-13.436-25.377c-10.139-1.245-16.742,11.041-19.738,37.086
		c-2.503,21.755-1.84,42.821,2.663,62.334c4.195,18.179,11.211,25.919,19.953,20.367c6.858-4.356,10.311-18.507,11.831-36.181
		c0.29-3.369,0.391-6.37,2.04-6.938c3.099-1.067,3.662,0.43,2.95,8.578c-2.528,28.903-9.603,46.22-19.419,47.533
		c-11.661,1.559-20.926-14.287-24.541-41.843C284.529,146.959,283.885,136.854,284.077,127.702z"/>
	<path fill="#282526" d="M202.427,86.586c1.82-8.304,3.886-15.958,6.93-21.327c3.182-5.613,6.666-8.147,10.445-8.376
		c1.127-0.068,1.66,0.88,1.514,3.99c-0.022,0.463-0.006,0.94-0.002,1.41c0.1,11.094,0.096,10.99-3.938,12.076
		c-6.665,1.795-14.965,17.993-15.052,46.916c-0.068,22.57-0.224,45.159,0.055,67.705c0.111,8.964-1.792,6.698-3.59,7.176
		c-2.163,0.575-2.986-0.704-2.963-7.385c0.144-40.907,0.15-81.822-0.004-122.729c-0.026-6.99,1.008-7.208,3.045-7.395
		c2.256-0.207,3.17,1.202,2.94,7.689c-0.233,6.56-0.051,13.225-0.051,19.844C201.98,86.315,202.204,86.45,202.427,86.586z"/>
	<path fill="#208DD5" d="M271.351,179.968c0-14.835,0-14.835,5.418-14.835c5.846,0,5.846,0,5.846,16.511
		c0,14.355,0,14.355-5.286,14.355C271.351,196,271.351,196,271.351,179.968z"/>
	<path fill="#F7F7F7" d="M26.691,93.617c0-11.294,0.045-22.591-0.025-33.882c-0.024-3.859,0.383-5.458,1.925-5.368
		c4.047,0.237,8.1-0.134,12.146,0.168c4.933,0.369,7.832,8.225,8.063,21.246c0.254,14.314-2.454,23.743-7.482,25.014
		c-2.793,0.706-5.631,0.499-8.442,0.205c-1.751-0.183-2.298,1.447-2.217,6.031c0.124,7.043-0.036,14.12,0.057,21.17
		c0.055,4.142-0.593,5.205-2.031,5.194c-1.429-0.011-2.055-1.022-2.025-5.19C26.746,116.679,26.691,105.146,26.691,93.617z
		 M36.072,91.619c1.055,0,2.111,0.046,3.166-0.008c3.545-0.181,5.402-4.589,5.58-13.189c0.179-8.654-1.732-14.289-5.223-15.177
		c-1.222-0.311-2.459-0.295-3.689-0.305c-5.316-0.042-5.316-0.026-5.316,13.978C30.589,91.621,30.589,91.621,36.072,91.619z"/>
	<path fill="#C2DDF0" d="M51.803,179.065c-1.033,7.331-3.056,8.484-5.233,6.229c-2.229-2.308-2.615-8.038-2.26-13.656
		c0.362-5.724,2.031-10.738,3.974-8.834c2.574,2.521,4.684,4.548,7.096-0.279c0.517-1.036,1.366,0.347,1.974,1.3
		c0.737,1.155,1.388,3.348,0.922,5.18c-0.697,2.739-1.09-0.542-1.55-1.487c-0.699-1.438-1.445-1.797-2.204-0.754
		c-0.238,0.328-0.426,1.537-0.43,2.35c-0.014,2.569,0.807,2.579,1.464,3.174c1.437,1.302,3.334,1.329,3.32,7.236
		c-0.008,3.118-0.663,5.505-1.812,6.164c-1.802,1.033-3.532,0.802-4.65-4.068C52.279,181.029,52.135,180.451,51.803,179.065z
		 M48.637,166.022c-1.606,0.485-2.539,2.198-2.85,5.419c-0.368,3.805-0.21,7.637,1.123,10.043c0.841,1.52,2.031,1.789,2.644-0.516
		c1.649-6.199,3.068-3.788,4.583,0.167c0.635,1.658,1.459,1.345,2.237,1.071c0.554-0.196,0.983-0.987,1.011-2.675
		c0.022-1.321-0.256-2.501-0.685-2.666c-2.018-0.778-3.517-4.888-5.361-6.13C50.054,169.869,49.756,165.308,48.637,166.022z"/>
	<path fill="#C2DDF0" d="M65.797,170.13c-1.323,0.208-1.493-4.378-2.752-3.942c-0.619,0.214-1.313,0.057-1.511,2.039
		c-0.191,1.921,0.254,3.059,0.918,3.625c0.419,0.356,0.829,0.843,1.257,1.054c1.392,0.683,2.585,1.95,2.642,6.432
		c0.037,2.904-0.536,5.222-1.518,6.009c-1.432,1.148-2.97,1.83-4.206-1.454c-0.481-1.278-0.976-2.842-0.434-5.466
		c1.079,0.756,1.651,4.737,3.021,3.978c0.699-0.387,1.49-0.264,1.608-2.697c0.097-1.999-0.479-2.852-1.112-3.329
		c-0.423-0.318-0.852-0.581-1.277-0.871c-1.464-0.996-2.799-2.464-2.363-7.519c0.384-4.451,1.696-5.96,3.227-5.494
		C64.875,162.976,66.095,164.853,65.797,170.13z"/>
	<path fill="#208DD5" d="M36.072,91.62c-5.482,0.001-5.482,0.001-5.482-14.702c0-14.004,0-14.021,5.316-13.978
		c1.23,0.01,2.467-0.006,3.689,0.305c3.491,0.888,5.402,6.524,5.223,15.177c-0.178,8.6-2.035,13.008-5.58,13.189
		C38.183,91.665,37.127,91.619,36.072,91.62z"/>
	<path fill="#208DD5" d="M48.637,166.022c1.119-0.715,1.417,3.847,2.702,4.712c1.844,1.242,3.343,5.352,5.361,6.13
		c0.428,0.165,0.707,1.345,0.685,2.666c-0.028,1.688-0.457,2.479-1.011,2.675c-0.778,0.275-1.602,0.587-2.237-1.071
		c-1.516-3.955-2.934-6.366-4.583-0.167c-0.613,2.305-1.803,2.036-2.644,0.516c-1.332-2.407-1.49-6.238-1.123-10.043
		C46.098,168.22,47.031,166.507,48.637,166.022z"/>
</g>
</svg>
