<?xml version="1.0" encoding="utf-8"?>
<!-- Generator: Adobe Illustrator 24.2.1, SVG Export Plug-In . SVG Version: 6.00 Build 0)  -->
<svg version="1.1" id="Capa_1" xmlns="http://www.w3.org/2000/svg" xmlns:xlink="http://www.w3.org/1999/xlink" x="0px" y="0px"
	 viewBox="0 0 612 182" style="enable-background:new 0 0 612 182;" xml:space="preserve">
<style type="text/css">
	.st0{fill:#1664AB;}
</style>
<g>
	<g id="Logotipo">
		<g>
			<path class="st0" d="M11.6,43l0.5-2.1c-0.3,0,2.2-4.9,1.9-4.9C-4,58.6-2.4,88.9,6.2,110.7c6,15.2,17,29.4,30.1,37.1
				c6.1,3.5,15.3,6.8,25,6.5c20.8-0.6,35.4-13.4,43.6-34.4l0.5-1.6c-7.3,9.6-19.1,16.2-28.4,17.5C38.4,141-1.3,95.8,11.6,43z"/>
			<path class="st0" d="M62.8,50.7c5.1,10.7,14.8,20.1,30.1,15.9c3.8-1.1,12.5-9.6,14.1-14.1c-13,11.6-21.1,7.7-25,6.2
				c-0.8-0.3-2.8-1.5-4.6-2.9c-4-3.2-6-4.6-9.2-10.6c-1.7-3.3-3.5-8.5-4-11.5c-0.9-4.9-0.7-12.5,1.1-19.1c-5.9,6.9-6.8,20.2-4.8,29
				C60.7,44.7,62.1,49.1,62.8,50.7z"/>
			<path class="st0" d="M67,107.4c20.4,3.6,35.6-7.6,40.9-25.1c-6,8.3-16.2,14.3-25.9,14.2c-21.7-0.2-46.2-25.6-43.4-61.1
				c0.2-3.1,1.2-7.8,3.7-14c-7.2,11.9-11.6,21.7-10.4,38C33.6,82,49.9,104.4,67,107.4z"/>
		</g>
	</g>
	<g id="Isotipo">
		<g>
			<path d="M587.3,13.5l-36.9,66.7L547,62.7h-24.2c0,0,2.4,15.9,4.2,24c1.8,8,4.9,16,5,24c0.2,9.1-3.5,26.3-3.5,26.3l23.6-0.2
				c0,0,2.5-16.5,5-24c1-3,2.9-5.4,4.2-7.6c3.9-6.9,51.8-91.6,51.8-91.6L587.3,13.5z"/>
			<path d="M538.5,31.3c-5.2-4.1-17.5-2.3-28-2.3h-16.3c-10.2,0-16.3-0.9-17.3,4.3c-3.2,15.9-16.7,103.6-16.7,103.6h21.7l14.2-80.7
				h11.7c13.5,0,38.4-0.5,38.4-0.5S543.3,35.1,538.5,31.3z"/>
			<path d="M455.4,39.9c-4.5-8.3-13.9-11.2-20-12c-16.4-2.2-30,3.5-37.6,10.9c-2.3,2.2-4.2,4-5.8,6.5c-0.6,0.9-1.3,1.9-1.8,3
				c-0.5,0.9-1.1,1.5-1.5,2.5c-0.7,1.4-1.4,4-2.3,6.3c-0.7,1.8-1.4,4-1.9,5.7c-4.5,14.8-9.1,42.3-5,56.7c0.6,2.1,2,4.8,2.4,5.6
				c0.6,1,1.1,2.2,1.7,3.1c2.3,3.2,5.6,5.4,9.2,6.5c18.1,5.6,54.3,3.3,54.3,3.3l4.4-25.7c0,0-25.6,1.5-37.8-0.5
				c-1.8-0.3-6.9-0.6-9.5-3.6c-2.3-2.6-5-8.7-3-12.7c1.4-2.8,7-2,11.7-2.2c15.1-0.6,42.6,0,42.6,0s5.3-30.6,2.5-43.6
				C457.2,46.5,456.6,42.1,455.4,39.9z M437.5,70.6l-32.4-0.3c0,0-0.4-18.3,18.5-17.5c6.7,0.3,9,1.5,11.6,6.6
				C438.1,65.4,437.5,70.6,437.5,70.6z"/>
			<path d="M358.4,28.9l-15,81.8c0,0-8.3,0.1-10.9,0c-8-0.2-10.6-0.6-12.5-5.5c-2-5.1-0.1-11.6,0.8-18.5c2.6-19.3,8.7-58,8.7-58
				L307.7,29c0,0-4.2,24.8-6.1,37c-2.8,17.2-8.7,42.4-2.5,57.8c6.4,15.8,21.5,13.1,38.4,13.1h24.2c6-35.4,17.7-108.1,17.7-108.1
				L358.4,28.9z"/>
			<path d="M289.1,40.9c-1.3-12.2-7.4-25.4-14-31c-0.3-0.2-1.5-1.5-1.8-1.7c-4.9-3.7-12.9-6.9-18.4-7.6
				c-28.4-3.8-45.4,12.7-55.1,34.9c-3.8,8.7-6.4,18.3-8.3,28.4c-2.2,11.2-3.8,24.8-2.5,37.1c0.8,7.4,3.9,17.9,8.3,24
				C208.3,140,230,138,253.2,138c7.1,0,24.1-0.2,29.3-0.4c1.7-0.1,6.4-25.4,6-26.2c-0.4-0.6-6.1,0.3-12.6-0.5
				C282.3,89,291.5,63.7,289.1,40.9z M259.9,81.3c-2.1,9.7-4.2,19.6-6.7,28.4c-16.9-0.1-32.5,2.9-37.6-10.9
				c-2.8-7.8-1.6-18.4,0-28.4c2.1-13.5,4.1-23.3,10-31.6c4.6-6.5,16.1-14.4,28.4-8.7c4.1,1.9,10.4,10.9,10.9,20.7
				C265.3,59.9,262.1,71,259.9,81.3z"/>
			<path d="M158.8,55.1h23.4c1.5-8.2,2.9-17.7,4.3-26c-8.2,0-15.2-0.1-22.6-0.1C162,36.9,160.7,45.9,158.8,55.1z"/>
			<path d="M148.8,112.9c-3.4,21.2-3.9,43.2-21.7,40.4c-1.7,8.2-3.9,19.1-5.8,28.3c7.3,0.2,14,0.9,20,0.1c3.7-0.5,10.3-2.6,11.7-4.4
				c0.6-0.7,1-0.4,1.7-1.1c7.7-7.9,9.7-18.8,12.5-33.8c4.6-23.9,10.4-58.3,13.4-79.6H158C156.9,67.6,150.8,100.7,148.8,112.9z"/>
		</g>
	</g>
</g>
</svg>
