<?xml version="1.0" encoding="utf-8"?>
<!-- Generator: Adobe Illustrator 24.2.1, SVG Export Plug-In . SVG Version: 6.00 Build 0)  -->
<svg version="1.1" id="Capa_1" xmlns="http://www.w3.org/2000/svg" xmlns:xlink="http://www.w3.org/1999/xlink" x="0px" y="0px"
	 viewBox="0 0 391 165" enable-background="new 0 0 391 165" xml:space="preserve">
<g>
	<path fill-rule="evenodd" clip-rule="evenodd" fill="#006189" d="M20.816,133.982h11.75v-32.483l18.347,28.32
		c2.079,3.406,5.062,4.667,10.846,4.667c5.785,0,8.586-1.262,10.756-4.667l18.257-28.32v32.483h11.84v-32.483
		c0-3.154-1.808-4.668-5.604-5.487c-8.947-1.892-14.913-0.252-17.624,3.974L61.398,127.99L44.044,99.986
		c-2.621-4.226-8.677-5.866-17.715-3.974c-3.705,0.82-5.513,2.334-5.513,5.487V133.982L20.816,133.982z"/>
	<path fill-rule="evenodd" clip-rule="evenodd" fill="#006189" d="M112.373,107.554h11.84v17.85c-0.09,1.009,0.452,3.28,6.869,3.343
		c3.344,0.063,25.488,0,25.669,0v-21.319h11.84c0,0,0,29.077,0,29.203c0,7.191-12.744,8.767-18.709,8.83h-37.237v-5.487
		c0.09,0,37.237,0,37.327,0c7.592-0.567,6.688-3.217,6.688-4.1v-2.144h-25.036c-11.659-0.063-19.161-3.659-19.251-7.758
		C112.373,125.594,112.644,107.681,112.373,107.554L112.373,107.554z"/>
	<path fill-rule="evenodd" clip-rule="evenodd" fill="#006189" d="M366.346,86.866c-7.23-0.126-12.834,0.379-17.534,1.766
		c-1.356,0.379-3.525,0.379-3.706,1.577c0.724,0.505,0.814,1.325,1.446,2.018c1.085,1.261,2.982,2.965,4.7,3.848
		c1.898,1.009,3.796,2.018,5.784,2.901c3.525,1.514,7.502,2.397,10.937,3.911c1.988,0.883,3.976,2.018,5.965,2.965
		c0.995,0.505,1.627,1.324,2.892,1.64c0-0.063,0-0.126,0-0.189c-0.633-0.568-0.814-1.388-1.446-2.018
		c-0.904-0.631-1.808-1.199-2.711-1.829c-2.621-2.46-5.875-4.604-9.4-6.37c-2.892-1.388-9.219-3.28-10.394-5.614
		c0,0-0.091-0.063-0.181-0.126c1.988-0.126,4.338-0.631,6.236-1.009c3.073-0.567,5.875-0.442,9.038-1.009
		c1.446-0.253,2.892-0.568,4.338-0.883c0-0.189,0-0.378,0-0.567c-1.627-1.136-2.802-2.649-4.519-3.721
		c-4.609-2.775-9.671-5.487-14.913-7.758c-2.802-1.261-6.418-2.082-9.4-3.154c-1.085-0.379-2.892-0.568-3.525-1.199
		c-1.627-1.388-2.531-3.217-3.706-4.857c-2.621-3.469-5.152-7.316-7.411-10.975c-1.627-2.46-2.621-4.92-4.609-7.191
		c-9.309-10.722-19.432-17.219-34.978-23.59c-3.344-1.324-7.321-1.892-11.569-2.586c-2.26-0.063-4.519-0.189-6.779-0.253
		c-1.446-0.442-2.892-1.64-4.158-2.207c-5.151-2.27-18.438-7.19-22.234-0.694c-2.44,4.1,3.615,8.136,5.694,10.218
		c1.537,1.451,3.525,3.09,4.61,4.73c0.632,1.072,0.813,2.208,1.446,3.343c1.446,2.775,2.802,5.866,4.7,8.452
		c0.994,1.324,2.079,2.712,3.344,3.91c0.723,0.694,1.988,1.009,2.26,2.145c-1.266,1.261-1.356,3.154-2.079,4.731
		c-3.254,7.127-1.988,15.957,2.621,21.193c1.446,1.577,4.881,5.046,9.49,3.721c4.067-1.135,3.163-4.73,4.338-7.884
		c0.271-0.757,0.091-1.261,0.633-1.766c0,0.063,0,0.126,0,0.126c1.266,1.766,2.531,3.469,3.705,5.235
		c2.802,3.09,7.682,6.307,11.75,8.452c2.169,1.135,3.887,3.09,6.598,3.784c0-0.063,0-0.126,0-0.19c-0.091,0-0.091,0-0.181,0
		c-0.543-0.567-1.356-0.82-2.079-1.261c-1.627-1.135-3.435-2.523-4.7-3.784c-3.796-3.532-7.14-7.443-10.123-11.479
		c-1.446-1.955-2.712-4.1-3.886-6.055c-0.543-0.757-0.543-1.892-1.446-2.27c-1.356,1.387-3.344,2.586-4.338,4.289
		c-1.717,2.712-1.898,6.055-2.531,9.524c-0.362,0.063-0.181,0-0.362,0.126c-2.892-0.504-3.886-2.586-4.971-4.352
		c-2.711-4.478-3.163-11.669-0.813-16.84c0.633-1.325,3.344-5.487,2.26-6.749c-0.543-1.199-2.35-1.892-3.344-2.838
		c-1.175-1.199-2.44-2.712-3.254-4.037c-2.169-3.532-3.254-7.443-5.604-10.975c-1.085-1.64-2.982-3.343-4.519-4.856
		c-1.718-1.703-3.615-2.902-4.971-4.92c-0.452-0.694-1.085-1.829-0.362-2.586c0.181-0.504,0.542-0.694,1.266-0.82
		c1.175-0.694,4.519,0.189,5.694,0.567c3.344,0.946,6.146,1.829,8.948,3.154c1.265,0.631,2.621,1.829,4.247,2.145
		c0.633,0,1.266,0,1.898,0c2.892,0.442,6.146,0.126,8.857,0.694c4.79,1.072,9.128,2.649,13.015,4.352
		c11.84,5.235,21.601,12.678,28.199,21.571c1.084,1.451,1.536,2.775,2.531,4.289c1.898,3.091,4.248,6.244,6.146,9.272
		c1.898,2.965,3.705,5.992,6.417,8.452c1.356,1.324,6.779,2.018,9.219,2.712c1.808,0.567,4.61,1.072,6.236,1.766
		c3.073,1.324,6.146,2.838,9.038,4.289C361.555,84.028,366.074,85.605,366.346,86.866L366.346,86.866z"/>
	<path fill-rule="evenodd" clip-rule="evenodd" fill="#006189" d="M274.156,32.055c-1.537,0-2.621,0.126-3.705,0.315
		c0,0,0,0.063,0,0.126c0.09,0,0.09,0,0.181,0c0.723,1.009,1.988,1.703,2.892,2.586c0.723,1.009,1.356,2.018,2.079,3.028
		c0.09-0.063,0.18-0.126,0.18-0.126c1.266-0.631,1.898-1.64,1.898-3.154c-0.543-0.442-0.633-0.883-1.085-1.325
		C276.055,32.875,274.879,32.56,274.156,32.055L274.156,32.055z"/>
	<path fill-rule="evenodd" clip-rule="evenodd" fill="#E38F00" d="M177.629,133.982h33.983c3.977,0,7.773-0.567,10.846-1.577
		c5.152-1.64,7.592-3.847,7.592-6.749v-6.055c0-2.334-2.802-4.541-8.405-6.055c-2.892-0.757-6.508-1.198-10.033-1.198h-14.28
		c-4.79,0-7.05-1.009-7.682-3.217c-0.091-0.252-0.091-0.505-0.091-0.757v-3.721c0-0.189,0-0.442,0.091-0.694
		c0.633-1.703,1.898-2.145,6.056-2.46c0.361,0,0.813,0,1.084,0h33.713v-5.487h-33.08c-4.79,0-7.321,0.189-9.58,0.694
		c-6.96,1.514-10.033,3.91-10.033,8.136v4.794c0,3.721,5.966,6.875,16.088,7.632c1.084,0.063,2.259,0.063,3.434,0.063h12.202
		c0.452,0,0.904,0,1.266,0.063c3.705,0.252,5.332,0.694,6.417,1.64c0.723,0.504,0.904,0.946,0.904,1.514v4.793
		c0,0.568-0.542,1.325-1.627,1.955c-1.085,0.631-2.802,1.072-5.062,1.135c-0.452,0-0.723,0.063-1.175,0.063h-32.628V133.982
		L177.629,133.982z"/>
	<path fill-rule="evenodd" clip-rule="evenodd" fill="#E38F00" d="M303.621,124.458c0,5.613,6.056,8.767,18.167,9.398
		c1.175,0.063,2.26,0.126,3.434,0.126h30.73v-5.487h-31.001c-6.869,0-9.49-1.198-9.49-4.1V96.012h-11.84V124.458L303.621,124.458z"
		/>
	<path fill-rule="evenodd" clip-rule="evenodd" fill="#E38F00" d="M237.552,124.71v-19.553c0-4.983,5.061-8.01,14.913-8.956
		c1.085-0.063,2.169-0.126,3.163-0.126h22.415c1.175,0,2.169,0.063,3.344,0.126c9.852,0.946,14.823,3.974,14.823,8.956v19.553
		c0,4.037-2.079,6.182-6.96,7.632l11.569,7.316h-13.647l-9.4-5.929l-9.49,0.378h-12.653c-2.079,0-4.429-0.189-6.869-0.631
		C241.257,132.027,237.552,129.252,237.552,124.71L237.552,124.71z M250.295,124.269c0,0.252,0.181,0.505,0.272,0.82
		c0.632,2.27,3.705,3.532,8.405,3.532h10.665l-9.761-6.181h13.647l8.586,5.424c1.627-0.631,2.621-1.513,2.983-2.649
		c0.09-0.252,0.09-0.568,0.09-0.82v-18.733c0-0.252,0-0.504-0.09-0.757c-0.633-2.145-3.706-3.343-8.315-3.343h-17.805
		c-5.242,0-8.677,1.577-8.677,4.1V124.269L250.295,124.269z"/>
	<path fill-rule="evenodd" clip-rule="evenodd" fill="#E38F00" d="M361.375,134.046h1.717v-4.605h2.26v-0.946h-6.327v0.946h2.35
		V134.046L361.375,134.046z M374.48,134.046h1.627v-5.551h-2.44l-1.988,3.784l-2.169-3.784h-2.35v5.551h1.537v-4.226h0.09
		l2.26,4.226h1.175l2.26-4.226l0,0V134.046L374.48,134.046z"/>
</g>
</svg>
