<?xml version="1.0" encoding="utf-8"?>
<!-- Generator: Adobe Illustrator 24.2.1, SVG Export Plug-In . SVG Version: 6.00 Build 0)  -->
<svg version="1.1" id="Capa_1" xmlns="http://www.w3.org/2000/svg" xmlns:xlink="http://www.w3.org/1999/xlink" x="0px" y="0px"
	 viewBox="0 0 482 264" enable-background="new 0 0 482 264" xml:space="preserve">
<g>
	<g>
		<defs>
			<path id="SVGID_1_" d="M240.383,251c127.787,0,231.383-53.952,231.383-120.5C471.766,63.952,368.17,10,240.383,10
				S9,63.952,9,130.5C9,197.048,112.596,251,240.383,251L240.383,251z"/>
		</defs>
		<clipPath id="SVGID_2_">
			<use xlink:href="#SVGID_1_"  overflow="visible"/>
		</clipPath>
		<g clip-path="url(#SVGID_2_)">
			<defs>
				<rect id="SVGID_3_" x="9" y="10" width="462.766" height="241"/>
			</defs>
			<clipPath id="SVGID_4_">
				<use xlink:href="#SVGID_3_"  overflow="visible"/>
			</clipPath>
			<g transform="matrix(1 0 0 1 0 0)" clip-path="url(#SVGID_4_)">
				
					<image overflow="visible" width="364" height="193" xlink:href="B82D0D36.png"  transform="matrix(1.2905 0 0 -1.2776 5.971 254.3615)">
				</image>
			</g>
		</g>
		<g clip-path="url(#SVGID_2_)">
			<defs>
				<rect id="SVGID_5_" x="9" y="10" width="462.766" height="241"/>
			</defs>
			<clipPath id="SVGID_6_">
				<use xlink:href="#SVGID_5_"  overflow="visible"/>
			</clipPath>
			<g transform="matrix(1 0 0 1 0 0)" clip-path="url(#SVGID_6_)">
				
					<image overflow="visible" width="364" height="193" xlink:href="B82D0D39.png"  transform="matrix(1.2905 0 0 -1.2776 5.971 254.3615)">
				</image>
			</g>
		</g>
	</g>
	<path fill-rule="evenodd" clip-rule="evenodd" fill="#6984BC" d="M240.383,242.053c122.796,0,222.344-49.945,222.344-111.553
		c0-61.608-99.548-111.553-222.344-111.553c-122.796,0-222.344,49.945-222.344,111.553
		C18.039,192.108,117.587,242.053,240.383,242.053L240.383,242.053z"/>
	<path fill-rule="evenodd" clip-rule="evenodd" fill="#FFFFFF" d="M285.423,166.555l11.03-56.196
		c2.488-12.683,0.418-22.144-6.151-28.121c-6.363-5.785-17.166-8.598-33.025-8.598h-19.099l5.466-27.842
		c0.205-1.05-0.073-2.135-0.758-2.961c-0.689-0.825-1.711-1.303-2.791-1.303h-26.361c-1.732,0-3.219,1.215-3.55,2.897
		l-11.712,59.659c-1.065-6.714-3.69-12.484-7.889-17.245c-7.733-8.762-19.963-13.206-36.355-13.206h-51.095
		c-1.732,0-3.219,1.215-3.549,2.897L75.875,197.296c-0.207,1.048,0.072,2.133,0.759,2.958c0.687,0.826,1.709,1.303,2.79,1.303h26.57
		c1.73,0,3.218-1.215,3.549-2.897l5.734-29.208h19.78c10.379,0,19.098-1.115,25.906-3.309c6.961-2.241,13.368-6.041,19.015-11.275
		c4.562-4.15,8.332-8.797,11.233-13.809l-4.736,24.131c-0.207,1.048,0.072,2.134,0.758,2.959c0.687,0.825,1.71,1.304,2.79,1.304
		h26.362c1.731,0,3.218-1.215,3.548-2.897l13.011-66.286h18.089c7.708,0,9.964,1.52,10.578,2.173
		c0.558,0.596,1.716,2.697,0.418,9.317l-10.487,53.43c-0.207,1.05,0.072,2.134,0.758,2.959c0.688,0.825,1.711,1.304,2.79,1.304
		h26.781C283.604,169.452,285.092,168.237,285.423,166.555L285.423,166.555z M163.206,120.125
		c-1.656,8.423-4.776,14.432-9.275,17.861c-4.571,3.484-11.882,5.252-21.73,5.252h-11.777l8.517-43.381h15.225
		c11.185,0,15.692,2.367,17.502,4.349C164.174,106.96,164.706,112.466,163.206,120.125L163.206,120.125z"/>
	<path fill-rule="evenodd" clip-rule="evenodd" fill="#FFFFFF" d="M396.469,86.846c-7.731-8.762-19.963-13.206-36.354-13.206
		h-51.096c-1.731,0-3.219,1.215-3.549,2.897l-23.706,120.758c-0.207,1.048,0.072,2.133,0.758,2.958
		c0.688,0.826,1.71,1.303,2.79,1.303h26.57c1.731,0,3.22-1.215,3.551-2.897l5.733-29.208h19.779c10.382,0,19.098-1.115,25.908-3.309
		c6.961-2.241,13.367-6.041,19.015-11.275c4.709-4.286,8.585-9.095,11.522-14.297c2.932-5.195,5.041-10.993,6.265-17.234
		C406.677,107.95,404.26,95.674,396.469,86.846L396.469,86.846z M370.599,120.125c-1.655,8.423-4.776,14.432-9.275,17.861
		c-4.572,3.484-11.882,5.252-21.73,5.252h-11.777l8.516-43.381h15.225c11.185,0,15.691,2.367,17.502,4.349
		C371.569,106.96,372.101,112.466,370.599,120.125L370.599,120.125z"/>
	<path fill-rule="evenodd" clip-rule="evenodd" d="M144.165,96.277c10.095,0,16.823,1.845,20.186,5.534
		c3.362,3.69,4.161,10.024,2.404,18.998c-1.838,9.347-5.375,16.017-10.62,20.014c-5.243,3.998-13.222,5.994-23.935,5.994h-16.163
		l9.922-50.54H144.165L144.165,96.277z M79.424,197.979h26.57l6.304-32.106h22.76c10.043,0,18.303-1.043,24.788-3.135
		c6.486-2.085,12.381-5.588,17.686-10.504c4.452-4.051,8.055-8.521,10.814-13.408c2.757-4.885,4.715-10.276,5.872-16.172
		c2.811-14.315,0.69-25.465-6.359-33.452c-7.048-7.988-18.262-11.981-33.632-11.981h-51.095L79.424,197.979L79.424,197.979z"/>
	<path fill-rule="evenodd" clip-rule="evenodd" d="M213.733,45.115h26.361l-6.303,32.105h23.485c14.776,0,24.969,2.553,30.579,7.654
		c5.61,5.104,7.291,13.373,5.048,24.805l-11.03,56.193h-26.781l10.487-53.43c1.193-6.078,0.755-10.224-1.318-12.435
		c-2.072-2.209-6.483-3.316-13.226-3.316h-21.069l-13.58,69.182h-26.362L213.733,45.115L213.733,45.115z"/>
	<path fill-rule="evenodd" clip-rule="evenodd" d="M351.559,96.277c10.095,0,16.823,1.845,20.186,5.534
		c3.361,3.69,4.162,10.024,2.403,18.998c-1.837,9.347-5.374,16.017-10.619,20.014c-5.243,3.998-13.222,5.994-23.934,5.994h-16.163
		l9.921-50.54H351.559L351.559,96.277z M286.819,197.979h26.571l6.301-32.106h22.76c10.043,0,18.304-1.043,24.789-3.135
		c6.486-2.085,12.382-5.588,17.686-10.504c4.452-4.051,8.055-8.521,10.815-13.408c2.755-4.885,4.714-10.276,5.872-16.172
		c2.811-14.315,0.691-25.465-6.358-33.452c-7.05-7.988-18.261-11.981-33.633-11.981h-51.097L286.819,197.979L286.819,197.979z"/>
</g>
</svg>
